G04 #@! TF.GenerationSoftware,KiCad,Pcbnew,8.0.8*
G04 #@! TF.CreationDate,2025-02-25T18:25:39+01:00*
G04 #@! TF.ProjectId,EPS,4550532e-6b69-4636-9164-5f7063625858,rev?*
G04 #@! TF.SameCoordinates,Original*
G04 #@! TF.FileFunction,Paste,Top*
G04 #@! TF.FilePolarity,Positive*
%FSLAX46Y46*%
G04 Gerber Fmt 4.6, Leading zero omitted, Abs format (unit mm)*
G04 Created by KiCad (PCBNEW 8.0.8) date 2025-02-25 18:25:39*
%MOMM*%
%LPD*%
G01*
G04 APERTURE LIST*
G04 Aperture macros list*
%AMRoundRect*
0 Rectangle with rounded corners*
0 $1 Rounding radius*
0 $2 $3 $4 $5 $6 $7 $8 $9 X,Y pos of 4 corners*
0 Add a 4 corners polygon primitive as box body*
4,1,4,$2,$3,$4,$5,$6,$7,$8,$9,$2,$3,0*
0 Add four circle primitives for the rounded corners*
1,1,$1+$1,$2,$3*
1,1,$1+$1,$4,$5*
1,1,$1+$1,$6,$7*
1,1,$1+$1,$8,$9*
0 Add four rect primitives between the rounded corners*
20,1,$1+$1,$2,$3,$4,$5,0*
20,1,$1+$1,$4,$5,$6,$7,0*
20,1,$1+$1,$6,$7,$8,$9,0*
20,1,$1+$1,$8,$9,$2,$3,0*%
G04 Aperture macros list end*
%ADD10RoundRect,0.160000X0.240000X0.290000X-0.240000X0.290000X-0.240000X-0.290000X0.240000X-0.290000X0*%
%ADD11R,0.609600X1.981200*%
%ADD12RoundRect,0.160000X-0.240000X-0.290000X0.240000X-0.290000X0.240000X0.290000X-0.240000X0.290000X0*%
%ADD13RoundRect,0.225000X-0.375000X0.225000X-0.375000X-0.225000X0.375000X-0.225000X0.375000X0.225000X0*%
%ADD14RoundRect,0.240000X1.160000X-0.360000X1.160000X0.360000X-1.160000X0.360000X-1.160000X-0.360000X0*%
%ADD15RoundRect,0.180000X-0.270000X0.320000X-0.270000X-0.320000X0.270000X-0.320000X0.270000X0.320000X0*%
%ADD16RoundRect,0.160000X-0.290000X0.240000X-0.290000X-0.240000X0.290000X-0.240000X0.290000X0.240000X0*%
%ADD17RoundRect,0.220000X-0.480000X0.330000X-0.480000X-0.330000X0.480000X-0.330000X0.480000X0.330000X0*%
%ADD18R,5.500000X2.150000*%
%ADD19RoundRect,0.160000X0.290000X-0.240000X0.290000X0.240000X-0.290000X0.240000X-0.290000X-0.240000X0*%
%ADD20RoundRect,0.120000X-0.680000X-0.180000X0.680000X-0.180000X0.680000X0.180000X-0.680000X0.180000X0*%
%ADD21RoundRect,0.080000X-0.870000X0.120000X-0.870000X-0.120000X0.870000X-0.120000X0.870000X0.120000X0*%
%ADD22RoundRect,0.180000X-0.320000X-0.270000X0.320000X-0.270000X0.320000X0.270000X-0.320000X0.270000X0*%
%ADD23R,1.100000X1.500000*%
%ADD24C,1.000000*%
%ADD25R,1.050000X0.600000*%
%ADD26R,0.900000X0.600000*%
%ADD27R,0.600000X0.900000*%
%ADD28RoundRect,0.050000X0.350000X-0.050000X0.350000X0.050000X-0.350000X0.050000X-0.350000X-0.050000X0*%
%ADD29RoundRect,0.050000X0.050000X-0.350000X0.050000X0.350000X-0.050000X0.350000X-0.050000X-0.350000X0*%
%ADD30RoundRect,0.250000X0.330000X-0.330000X0.330000X0.330000X-0.330000X0.330000X-0.330000X-0.330000X0*%
%ADD31RoundRect,0.180000X0.270000X-0.320000X0.270000X0.320000X-0.270000X0.320000X-0.270000X-0.320000X0*%
%ADD32RoundRect,0.180000X0.320000X0.270000X-0.320000X0.270000X-0.320000X-0.270000X0.320000X-0.270000X0*%
%ADD33RoundRect,0.075000X0.662500X0.075000X-0.662500X0.075000X-0.662500X-0.075000X0.662500X-0.075000X0*%
%ADD34RoundRect,0.075000X0.075000X0.662500X-0.075000X0.662500X-0.075000X-0.662500X0.075000X-0.662500X0*%
%ADD35RoundRect,0.218750X-0.218750X-0.256250X0.218750X-0.256250X0.218750X0.256250X-0.218750X0.256250X0*%
%ADD36RoundRect,0.100000X0.225000X0.100000X-0.225000X0.100000X-0.225000X-0.100000X0.225000X-0.100000X0*%
%ADD37RoundRect,0.080000X-0.120000X-0.870000X0.120000X-0.870000X0.120000X0.870000X-0.120000X0.870000X0*%
%ADD38RoundRect,0.420000X-0.630000X-2.680000X0.630000X-2.680000X0.630000X2.680000X-0.630000X2.680000X0*%
%ADD39RoundRect,0.420000X-0.630000X-2.630000X0.630000X-2.630000X0.630000X2.630000X-0.630000X2.630000X0*%
%ADD40R,1.949996X1.605597*%
%ADD41RoundRect,0.130000X-0.195000X0.420000X-0.195000X-0.420000X0.195000X-0.420000X0.195000X0.420000X0*%
%ADD42RoundRect,0.240000X-1.160000X0.360000X-1.160000X-0.360000X1.160000X-0.360000X1.160000X0.360000X0*%
%ADD43RoundRect,0.225000X0.225000X0.375000X-0.225000X0.375000X-0.225000X-0.375000X0.225000X-0.375000X0*%
%ADD44RoundRect,0.150000X-0.650000X-0.150000X0.650000X-0.150000X0.650000X0.150000X-0.650000X0.150000X0*%
%ADD45RoundRect,0.260000X-0.390000X0.740000X-0.390000X-0.740000X0.390000X-0.740000X0.390000X0.740000X0*%
%ADD46RoundRect,0.130000X0.420000X0.195000X-0.420000X0.195000X-0.420000X-0.195000X0.420000X-0.195000X0*%
%ADD47RoundRect,0.218750X-0.218750X-0.381250X0.218750X-0.381250X0.218750X0.381250X-0.218750X0.381250X0*%
%ADD48RoundRect,0.220000X0.480000X-0.330000X0.480000X0.330000X-0.480000X0.330000X-0.480000X-0.330000X0*%
%ADD49RoundRect,0.062500X-0.375000X0.062500X-0.375000X-0.062500X0.375000X-0.062500X0.375000X0.062500X0*%
%ADD50RoundRect,0.062500X-0.062500X0.375000X-0.062500X-0.375000X0.062500X-0.375000X0.062500X0.375000X0*%
%ADD51RoundRect,0.250000X-0.315000X0.315000X-0.315000X-0.315000X0.315000X-0.315000X0.315000X0.315000X0*%
%ADD52RoundRect,0.250000X0.375000X0.625000X-0.375000X0.625000X-0.375000X-0.625000X0.375000X-0.625000X0*%
%ADD53R,3.100000X4.000000*%
%ADD54RoundRect,0.100000X-0.225000X-0.100000X0.225000X-0.100000X0.225000X0.100000X-0.225000X0.100000X0*%
%ADD55R,0.900000X0.800000*%
%ADD56RoundRect,0.150000X-0.587500X-0.150000X0.587500X-0.150000X0.587500X0.150000X-0.587500X0.150000X0*%
%ADD57RoundRect,0.200000X0.300000X0.700000X-0.300000X0.700000X-0.300000X-0.700000X0.300000X-0.700000X0*%
%ADD58RoundRect,0.220000X0.330000X0.480000X-0.330000X0.480000X-0.330000X-0.480000X0.330000X-0.480000X0*%
%ADD59RoundRect,0.360000X0.540000X1.540000X-0.540000X1.540000X-0.540000X-1.540000X0.540000X-1.540000X0*%
%ADD60RoundRect,0.200000X-0.300000X-0.700000X0.300000X-0.700000X0.300000X0.700000X-0.300000X0.700000X0*%
%ADD61RoundRect,0.218750X0.218750X0.256250X-0.218750X0.256250X-0.218750X-0.256250X0.218750X-0.256250X0*%
%ADD62R,0.400000X1.650000*%
%ADD63RoundRect,0.420000X-0.630000X-0.830000X0.630000X-0.830000X0.630000X0.830000X-0.630000X0.830000X0*%
%ADD64RoundRect,0.260000X0.390000X-1.265000X0.390000X1.265000X-0.390000X1.265000X-0.390000X-1.265000X0*%
%ADD65RoundRect,0.357500X0.357500X-0.892500X0.357500X0.892500X-0.357500X0.892500X-0.357500X-0.892500X0*%
%ADD66RoundRect,0.200000X0.300000X0.400000X-0.300000X0.400000X-0.300000X-0.400000X0.300000X-0.400000X0*%
%ADD67RoundRect,0.225000X0.375000X-0.225000X0.375000X0.225000X-0.375000X0.225000X-0.375000X-0.225000X0*%
%ADD68RoundRect,0.225000X-0.225000X-0.375000X0.225000X-0.375000X0.225000X0.375000X-0.225000X0.375000X0*%
%ADD69RoundRect,0.500000X0.750000X-1.150000X0.750000X1.150000X-0.750000X1.150000X-0.750000X-1.150000X0*%
%ADD70RoundRect,0.130000X0.195000X-0.420000X0.195000X0.420000X-0.195000X0.420000X-0.195000X-0.420000X0*%
%ADD71R,0.800000X0.900000*%
%ADD72RoundRect,0.150000X-0.200000X0.150000X-0.200000X-0.150000X0.200000X-0.150000X0.200000X0.150000X0*%
%ADD73RoundRect,0.220000X-0.330000X-0.480000X0.330000X-0.480000X0.330000X0.480000X-0.330000X0.480000X0*%
%ADD74RoundRect,0.220000X0.330000X1.130000X-0.330000X1.130000X-0.330000X-1.130000X0.330000X-1.130000X0*%
%ADD75RoundRect,0.200000X0.700000X-0.300000X0.700000X0.300000X-0.700000X0.300000X-0.700000X-0.300000X0*%
G04 APERTURE END LIST*
D10*
X112250000Y-103150000D03*
X113850000Y-103150000D03*
D11*
X170160000Y-102325000D03*
X167620000Y-102325000D03*
X165080000Y-102325000D03*
X162540000Y-102325000D03*
X160000000Y-102325000D03*
X160000000Y-91250600D03*
X162540000Y-91250600D03*
X165080000Y-91250600D03*
X167620000Y-91250600D03*
X170160000Y-91250600D03*
D12*
X153550000Y-116625000D03*
X151950000Y-116625000D03*
X63815280Y-113510000D03*
X62215280Y-113510000D03*
D13*
X201480000Y-100040000D03*
X201480000Y-96740000D03*
D14*
X118300000Y-122610000D03*
X118300000Y-127610000D03*
D15*
X118300000Y-120660000D03*
X117350000Y-118560000D03*
X119250000Y-118560000D03*
D16*
X141725000Y-96725000D03*
X141725000Y-95125000D03*
D17*
X59750000Y-53250000D03*
X59750000Y-51250000D03*
D10*
X117500000Y-116610000D03*
X119100000Y-116610000D03*
X230490000Y-91500000D03*
X232090000Y-91500000D03*
D18*
X163225000Y-81000000D03*
X163225000Y-84850000D03*
D19*
X188870000Y-83370000D03*
X188870000Y-84970000D03*
D10*
X146810000Y-84500000D03*
X145210000Y-84500000D03*
D20*
X191180000Y-82515000D03*
X191180000Y-83785000D03*
X191180000Y-85055000D03*
X191180000Y-86325000D03*
X196580000Y-86325000D03*
X196580000Y-85055000D03*
X196580000Y-83785000D03*
X196580000Y-82515000D03*
D21*
X215790000Y-63710000D03*
X215790000Y-64910000D03*
X215790000Y-66110000D03*
D12*
X177300000Y-70750000D03*
X175700000Y-70750000D03*
D10*
X216150000Y-114275000D03*
X217750000Y-114275000D03*
D19*
X119400000Y-97620000D03*
X119400000Y-99220000D03*
X89750000Y-123900000D03*
X89750000Y-125500000D03*
D12*
X179920000Y-86635000D03*
X178320000Y-86635000D03*
D16*
X131650000Y-93470000D03*
X131650000Y-91870000D03*
D19*
X206790000Y-55910000D03*
X206790000Y-57510000D03*
D22*
X91700000Y-123750000D03*
X91700000Y-125650000D03*
X93800000Y-124700000D03*
D23*
X220040000Y-71710000D03*
X220040000Y-68710000D03*
X218540000Y-68710000D03*
X218540000Y-71710000D03*
D24*
X196180000Y-113250000D03*
D19*
X127950000Y-96225000D03*
X127950000Y-97825000D03*
X135475000Y-112785000D03*
X135475000Y-114385000D03*
X152800000Y-112750000D03*
X152800000Y-114350000D03*
D15*
X135425000Y-120685000D03*
X134475000Y-118585000D03*
X136375000Y-118585000D03*
D19*
X129675000Y-112785000D03*
X129675000Y-114385000D03*
D12*
X208275000Y-52975000D03*
X206675000Y-52975000D03*
D16*
X116800000Y-114410000D03*
X116800000Y-112810000D03*
D12*
X162800000Y-74000000D03*
X161200000Y-74000000D03*
D25*
X73275000Y-101760000D03*
X73275000Y-100490000D03*
X73275000Y-99220000D03*
X73275000Y-103030000D03*
D26*
X79000000Y-103000000D03*
D27*
X75450000Y-102275000D03*
X76300000Y-102275000D03*
X77150000Y-102275000D03*
X78000000Y-102275000D03*
D26*
X79000000Y-101725000D03*
D27*
X75450000Y-101125000D03*
X76300000Y-101125000D03*
X77150000Y-101125000D03*
X78000000Y-101125000D03*
D26*
X79000000Y-100525000D03*
D27*
X75450000Y-99975000D03*
X76300000Y-99975000D03*
X77150000Y-99975000D03*
X78000000Y-99975000D03*
D26*
X79000000Y-99250000D03*
D24*
X164700000Y-128160000D03*
D12*
X63315280Y-122710000D03*
X61715280Y-122710000D03*
X204950000Y-58700000D03*
X203350000Y-58700000D03*
D16*
X188980000Y-114950000D03*
X188980000Y-113350000D03*
X154325000Y-114350000D03*
X154325000Y-112750000D03*
D28*
X132200000Y-101050000D03*
X132200000Y-100650000D03*
X132200000Y-100250000D03*
X132200000Y-99850000D03*
X132200000Y-99450000D03*
X132200000Y-99050000D03*
X132200000Y-98650000D03*
X132200000Y-98250000D03*
X132200000Y-97850000D03*
X132200000Y-97450000D03*
X132200000Y-97050000D03*
X132200000Y-96650000D03*
D29*
X132950000Y-95900000D03*
X133350000Y-95900000D03*
X133750000Y-95900000D03*
X134150000Y-95900000D03*
X134550000Y-95900000D03*
X134950000Y-95900000D03*
X135350000Y-95900000D03*
X135750000Y-95900000D03*
X136150000Y-95900000D03*
X136550000Y-95900000D03*
X136950000Y-95900000D03*
X137350000Y-95900000D03*
D28*
X138100000Y-96650000D03*
X138100000Y-97050000D03*
X138100000Y-97450000D03*
X138100000Y-97850000D03*
X138100000Y-98250000D03*
X138100000Y-98650000D03*
X138100000Y-99050000D03*
X138100000Y-99450000D03*
X138100000Y-99850000D03*
X138100000Y-100250000D03*
X138100000Y-100650000D03*
X138100000Y-101050000D03*
D29*
X137350000Y-101800000D03*
X136950000Y-101800000D03*
X136550000Y-101800000D03*
X136150000Y-101800000D03*
X135750000Y-101800000D03*
X135350000Y-101800000D03*
X134950000Y-101800000D03*
X134550000Y-101800000D03*
X134150000Y-101800000D03*
X133750000Y-101800000D03*
X133350000Y-101800000D03*
X132950000Y-101800000D03*
D30*
X136580000Y-97420000D03*
X135150000Y-97420000D03*
X133720000Y-97420000D03*
X136580000Y-98850000D03*
X135150000Y-98850000D03*
X133720000Y-98850000D03*
X136580000Y-100280000D03*
X135150000Y-100280000D03*
X133720000Y-100280000D03*
D16*
X97750000Y-101500000D03*
X97750000Y-99900000D03*
D10*
X220790000Y-104710000D03*
X222390000Y-104710000D03*
D24*
X138010000Y-80500000D03*
D19*
X105050000Y-93850000D03*
X105050000Y-95450000D03*
D10*
X175700000Y-72250000D03*
X177300000Y-72250000D03*
D25*
X73275000Y-109010000D03*
X73275000Y-107740000D03*
X73275000Y-106470000D03*
X73275000Y-110280000D03*
D26*
X79000000Y-110250000D03*
D27*
X75450000Y-109525000D03*
X76300000Y-109525000D03*
X77150000Y-109525000D03*
X78000000Y-109525000D03*
D26*
X79000000Y-108975000D03*
D27*
X75450000Y-108375000D03*
X76300000Y-108375000D03*
X77150000Y-108375000D03*
X78000000Y-108375000D03*
D26*
X79000000Y-107775000D03*
D27*
X75450000Y-107225000D03*
X76300000Y-107225000D03*
X77150000Y-107225000D03*
X78000000Y-107225000D03*
D26*
X79000000Y-106500000D03*
D25*
X90475000Y-100390000D03*
X90475000Y-101660000D03*
X90475000Y-102930000D03*
X90475000Y-99120000D03*
D26*
X84750000Y-99150000D03*
D27*
X88300000Y-99875000D03*
X87450000Y-99875000D03*
X86600000Y-99875000D03*
X85750000Y-99875000D03*
D26*
X84750000Y-100425000D03*
D27*
X88300000Y-101025000D03*
X87450000Y-101025000D03*
X86600000Y-101025000D03*
X85750000Y-101025000D03*
D26*
X84750000Y-101625000D03*
D27*
X88300000Y-102175000D03*
X87450000Y-102175000D03*
X86600000Y-102175000D03*
X85750000Y-102175000D03*
D26*
X84750000Y-102900000D03*
D31*
X170650000Y-115880000D03*
X171600000Y-117980000D03*
X169700000Y-117980000D03*
D19*
X102250000Y-99900000D03*
X102250000Y-101500000D03*
D16*
X128125000Y-104700000D03*
X128125000Y-103100000D03*
D19*
X226150000Y-127950000D03*
X226150000Y-129550000D03*
D10*
X105367677Y-52250000D03*
X106967677Y-52250000D03*
D32*
X179150000Y-95025000D03*
X181250000Y-94075000D03*
X181250000Y-95975000D03*
D19*
X141225000Y-112835000D03*
X141225000Y-114435000D03*
X201200000Y-67880000D03*
X201200000Y-69480000D03*
D33*
X211952500Y-67460000D03*
X211952500Y-66960000D03*
X211952500Y-66460000D03*
X211952500Y-65960000D03*
X211952500Y-65460000D03*
X211952500Y-64960000D03*
X211952500Y-64460000D03*
X211952500Y-63960000D03*
X211952500Y-63460000D03*
X211952500Y-62960000D03*
X211952500Y-62460000D03*
X211952500Y-61960000D03*
D34*
X210540000Y-60547500D03*
X210040000Y-60547500D03*
X209540000Y-60547500D03*
X209040000Y-60547500D03*
X208540000Y-60547500D03*
X208040000Y-60547500D03*
X207540000Y-60547500D03*
X207040000Y-60547500D03*
X206540000Y-60547500D03*
X206040000Y-60547500D03*
X205540000Y-60547500D03*
X205040000Y-60547500D03*
D33*
X203627500Y-61960000D03*
X203627500Y-62460000D03*
X203627500Y-62960000D03*
X203627500Y-63460000D03*
X203627500Y-63960000D03*
X203627500Y-64460000D03*
X203627500Y-64960000D03*
X203627500Y-65460000D03*
X203627500Y-65960000D03*
X203627500Y-66460000D03*
X203627500Y-66960000D03*
X203627500Y-67460000D03*
D34*
X205040000Y-68872500D03*
X205540000Y-68872500D03*
X206040000Y-68872500D03*
X206540000Y-68872500D03*
X207040000Y-68872500D03*
X207540000Y-68872500D03*
X208040000Y-68872500D03*
X208540000Y-68872500D03*
X209040000Y-68872500D03*
X209540000Y-68872500D03*
X210040000Y-68872500D03*
X210540000Y-68872500D03*
D19*
X208290000Y-55910000D03*
X208290000Y-57510000D03*
D16*
X124450000Y-104850000D03*
X124450000Y-103250000D03*
D19*
X221775000Y-108400000D03*
X221775000Y-106800000D03*
D35*
X152327500Y-85975000D03*
X150752500Y-85975000D03*
D36*
X106010000Y-102410000D03*
X106010000Y-101760000D03*
X106010000Y-101110000D03*
X107910000Y-101110000D03*
X107910000Y-101760000D03*
X107910000Y-102410000D03*
D24*
X69250000Y-122500000D03*
D10*
X169950000Y-124980000D03*
X171550000Y-124980000D03*
D16*
X100750000Y-101500000D03*
X100750000Y-99900000D03*
D24*
X196180000Y-115250000D03*
D16*
X145275000Y-96050000D03*
X145275000Y-94450000D03*
D12*
X219300000Y-103975000D03*
X217700000Y-103975000D03*
D19*
X176425000Y-117725000D03*
X176425000Y-119325000D03*
X55750000Y-58450000D03*
X55750000Y-60050000D03*
D12*
X171430000Y-114120000D03*
X169830000Y-114120000D03*
D16*
X133975000Y-114385000D03*
X133975000Y-112785000D03*
D15*
X129675000Y-120635000D03*
X128725000Y-118535000D03*
X130625000Y-118535000D03*
D19*
X175500000Y-82307998D03*
X175500000Y-83907998D03*
D12*
X130475000Y-116585000D03*
X128875000Y-116585000D03*
D19*
X129700000Y-96200000D03*
X129700000Y-97800000D03*
X209000000Y-71450000D03*
X209000000Y-73050000D03*
D37*
X211750000Y-100675000D03*
X212950000Y-100675000D03*
X214150000Y-100675000D03*
D16*
X156500000Y-70000000D03*
X156500000Y-68400000D03*
D38*
X147850000Y-74500000D03*
D39*
X152250000Y-74500000D03*
D12*
X162700000Y-70615000D03*
X161100000Y-70615000D03*
D16*
X136975000Y-114385000D03*
X136975000Y-112785000D03*
D10*
X64900000Y-50750000D03*
X66500000Y-50750000D03*
D12*
X142025000Y-116635000D03*
X140425000Y-116635000D03*
D10*
X94200000Y-102775000D03*
X95800000Y-102775000D03*
D16*
X211600000Y-57300000D03*
X211600000Y-55700000D03*
D19*
X211000000Y-71450000D03*
X211000000Y-73050000D03*
D10*
X94200000Y-110525000D03*
X95800000Y-110525000D03*
D19*
X143575000Y-95975000D03*
X143575000Y-97575000D03*
D40*
X168305198Y-81944404D03*
X168305198Y-84750000D03*
D15*
X141275000Y-120735000D03*
X140325000Y-118635000D03*
X142225000Y-118635000D03*
D19*
X95750000Y-123900000D03*
X95750000Y-125500000D03*
D12*
X175340000Y-113460000D03*
X173740000Y-113460000D03*
D10*
X94200000Y-106775000D03*
X95800000Y-106775000D03*
D20*
X178390000Y-116595000D03*
X178390000Y-117865000D03*
X178390000Y-119135000D03*
X178390000Y-120405000D03*
X183790000Y-120405000D03*
X183790000Y-119135000D03*
X183790000Y-117865000D03*
X183790000Y-116595000D03*
D10*
X72700000Y-112625000D03*
X74300000Y-112625000D03*
D16*
X119800000Y-114410000D03*
X119800000Y-112810000D03*
X110010000Y-102710000D03*
X110010000Y-101110000D03*
D12*
X101050000Y-127500000D03*
X99450000Y-127500000D03*
D41*
X146750000Y-67750000D03*
X145800000Y-67750000D03*
X144850000Y-67750000D03*
X144850000Y-69950000D03*
X145800000Y-69950000D03*
X146750000Y-69950000D03*
D19*
X143575000Y-94500000D03*
X143575000Y-92900000D03*
D16*
X207290000Y-73010000D03*
X207290000Y-71410000D03*
D12*
X147775000Y-116585000D03*
X146175000Y-116585000D03*
D19*
X158225000Y-112700000D03*
X158225000Y-114300000D03*
D12*
X91800000Y-89500000D03*
X90200000Y-89500000D03*
X208275000Y-54475000D03*
X206675000Y-54475000D03*
D16*
X213150000Y-71525000D03*
X213150000Y-69925000D03*
D12*
X171410000Y-119490000D03*
X169810000Y-119490000D03*
D10*
X216125000Y-112775000D03*
X217725000Y-112775000D03*
D42*
X129675000Y-127585000D03*
X129675000Y-122585000D03*
D16*
X151250000Y-114350000D03*
X151250000Y-112750000D03*
D19*
X205590000Y-113120000D03*
X205590000Y-114720000D03*
D13*
X115075000Y-52175000D03*
X115075000Y-48875000D03*
D42*
X141225000Y-127635000D03*
X141225000Y-122635000D03*
D10*
X150620000Y-84060000D03*
X152220000Y-84060000D03*
D35*
X224802500Y-93500000D03*
X226377500Y-93500000D03*
D12*
X204950000Y-57200000D03*
X203350000Y-57200000D03*
X63315280Y-125210000D03*
X61715280Y-125210000D03*
D19*
X118300000Y-112810000D03*
X118300000Y-114410000D03*
D16*
X145475000Y-114385000D03*
X145475000Y-112785000D03*
D43*
X63050000Y-53250000D03*
X66350000Y-53250000D03*
D14*
X124000000Y-122635000D03*
X124000000Y-127635000D03*
D15*
X124000000Y-120685000D03*
X123050000Y-118585000D03*
X124950000Y-118585000D03*
D12*
X95800000Y-108775000D03*
X94200000Y-108775000D03*
D32*
X183150000Y-91025000D03*
X185250000Y-90075000D03*
X185250000Y-91975000D03*
D12*
X136275000Y-116585000D03*
X134675000Y-116585000D03*
D16*
X131175000Y-114385000D03*
X131175000Y-112785000D03*
D20*
X49500000Y-56500000D03*
X49500000Y-57770000D03*
X49500000Y-59040000D03*
X49500000Y-60310000D03*
X44100000Y-60310000D03*
X44100000Y-59040000D03*
X44100000Y-57770000D03*
X44100000Y-56500000D03*
D12*
X122577677Y-49250000D03*
X120977677Y-49250000D03*
D16*
X205790000Y-73010000D03*
X205790000Y-71410000D03*
D12*
X169300000Y-67750000D03*
X167700000Y-67750000D03*
D44*
X164900000Y-69845000D03*
X164900000Y-71115000D03*
X164900000Y-72385000D03*
X164900000Y-73655000D03*
X172100000Y-73655000D03*
X172100000Y-72385000D03*
X172100000Y-71115000D03*
X172100000Y-69845000D03*
D45*
X167200000Y-116170000D03*
X167200000Y-124170000D03*
X162700000Y-116170000D03*
X162700000Y-124170000D03*
D16*
X139725000Y-114435000D03*
X139725000Y-112835000D03*
D10*
X123200000Y-116635000D03*
X124800000Y-116635000D03*
D46*
X193580000Y-115200000D03*
X193580000Y-114250000D03*
X193580000Y-113300000D03*
X191380000Y-113300000D03*
X191380000Y-115200000D03*
D16*
X142725000Y-114435000D03*
X142725000Y-112835000D03*
D12*
X74300000Y-114375000D03*
X72700000Y-114375000D03*
D19*
X124000000Y-112835000D03*
X124000000Y-114435000D03*
D12*
X208275000Y-51475000D03*
X206675000Y-51475000D03*
X91800000Y-95250000D03*
X90200000Y-95250000D03*
X59815280Y-122710000D03*
X58215280Y-122710000D03*
D15*
X152750000Y-120660000D03*
X151800000Y-118560000D03*
X153700000Y-118560000D03*
D16*
X122500000Y-114435000D03*
X122500000Y-112835000D03*
X148475000Y-114385000D03*
X148475000Y-112785000D03*
D42*
X146975000Y-127585000D03*
X146975000Y-122585000D03*
D47*
X145112500Y-76000000D03*
X142987500Y-76000000D03*
D19*
X220050000Y-108400000D03*
X220050000Y-106800000D03*
X122950000Y-103250000D03*
X122950000Y-104850000D03*
D12*
X95800000Y-104775000D03*
X94200000Y-104775000D03*
X135550000Y-94050000D03*
X133950000Y-94050000D03*
D48*
X152000000Y-68000000D03*
X152000000Y-70000000D03*
D19*
X154250000Y-68400000D03*
X154250000Y-70000000D03*
D12*
X142100000Y-98225000D03*
X140500000Y-98225000D03*
D49*
X216227500Y-105000000D03*
X216227500Y-105500000D03*
X216227500Y-106000000D03*
X216227500Y-106500000D03*
X216227500Y-107000000D03*
X216227500Y-107500000D03*
X216227500Y-108000000D03*
X216227500Y-108500000D03*
X216227500Y-109000000D03*
X216227500Y-109500000D03*
X216227500Y-110000000D03*
X216227500Y-110500000D03*
D50*
X215540000Y-111187500D03*
X215040000Y-111187500D03*
X214540000Y-111187500D03*
X214040000Y-111187500D03*
X213540000Y-111187500D03*
X213040000Y-111187500D03*
X212540000Y-111187500D03*
X212040000Y-111187500D03*
X211540000Y-111187500D03*
X211040000Y-111187500D03*
X210540000Y-111187500D03*
X210040000Y-111187500D03*
D49*
X209352500Y-110500000D03*
X209352500Y-110000000D03*
X209352500Y-109500000D03*
X209352500Y-109000000D03*
X209352500Y-108500000D03*
X209352500Y-108000000D03*
X209352500Y-107500000D03*
X209352500Y-107000000D03*
X209352500Y-106500000D03*
X209352500Y-106000000D03*
X209352500Y-105500000D03*
X209352500Y-105000000D03*
D50*
X210040000Y-104312500D03*
X210540000Y-104312500D03*
X211040000Y-104312500D03*
X211540000Y-104312500D03*
X212040000Y-104312500D03*
X212540000Y-104312500D03*
X213040000Y-104312500D03*
X213540000Y-104312500D03*
X214040000Y-104312500D03*
X214540000Y-104312500D03*
X215040000Y-104312500D03*
X215540000Y-104312500D03*
D51*
X210690000Y-109850000D03*
X212090000Y-109850000D03*
X213490000Y-109850000D03*
X214890000Y-109850000D03*
X210690000Y-108450000D03*
X212090000Y-108450000D03*
X213490000Y-108450000D03*
X214890000Y-108450000D03*
X210690000Y-107050000D03*
X212090000Y-107050000D03*
X213490000Y-107050000D03*
X214890000Y-107050000D03*
X210690000Y-105650000D03*
X212090000Y-105650000D03*
X213490000Y-105650000D03*
X214890000Y-105650000D03*
D12*
X126077677Y-49250000D03*
X124477677Y-49250000D03*
D19*
X187250000Y-95275000D03*
X187250000Y-96875000D03*
D12*
X135500000Y-92475000D03*
X133900000Y-92475000D03*
D10*
X175700000Y-73750000D03*
X177300000Y-73750000D03*
X90200000Y-88000000D03*
X91800000Y-88000000D03*
D52*
X217230000Y-128340000D03*
X214430000Y-128340000D03*
D16*
X156650000Y-114325000D03*
X156650000Y-112725000D03*
D12*
X209975000Y-100875000D03*
X208375000Y-100875000D03*
D42*
X135475000Y-127585000D03*
X135475000Y-122585000D03*
D12*
X216590000Y-61710000D03*
X214990000Y-61710000D03*
D53*
X111467677Y-64250000D03*
X115867677Y-64250000D03*
D12*
X209950000Y-102350000D03*
X208350000Y-102350000D03*
X212825000Y-98350000D03*
X211225000Y-98350000D03*
D10*
X99450000Y-129500000D03*
X101050000Y-129500000D03*
D19*
X204100000Y-108175000D03*
X204100000Y-109775000D03*
X146975000Y-112785000D03*
X146975000Y-114385000D03*
D12*
X91800000Y-97000000D03*
X90200000Y-97000000D03*
D15*
X146975000Y-120635000D03*
X146025000Y-118535000D03*
X147925000Y-118535000D03*
D10*
X122650000Y-101750000D03*
X124250000Y-101750000D03*
D16*
X128175000Y-114385000D03*
X128175000Y-112785000D03*
X125500000Y-114435000D03*
X125500000Y-112835000D03*
D19*
X207200000Y-110250000D03*
X207200000Y-111850000D03*
D16*
X147450000Y-96125000D03*
X147450000Y-94525000D03*
D54*
X110167677Y-53950000D03*
X110167677Y-54600000D03*
X110167677Y-55250000D03*
X108267677Y-55250000D03*
X108267677Y-54600000D03*
X108267677Y-53950000D03*
D35*
X230262500Y-93500000D03*
X231837500Y-93500000D03*
D10*
X181250000Y-92075000D03*
X179650000Y-92075000D03*
X181050000Y-90075000D03*
X179450000Y-90075000D03*
D55*
X101250000Y-123550000D03*
X99250000Y-124500000D03*
X101250000Y-125450000D03*
D56*
X180875000Y-99637500D03*
X180875000Y-101537500D03*
X182750000Y-100587500D03*
D19*
X173630000Y-127820000D03*
X173630000Y-126220000D03*
D40*
X158000000Y-84652798D03*
X158000000Y-81847202D03*
D22*
X183150000Y-94125000D03*
X183150000Y-96025000D03*
X185250000Y-95075000D03*
D16*
X187250000Y-92275000D03*
X187250000Y-93875000D03*
D19*
X99250000Y-101500000D03*
X99250000Y-99900000D03*
X97550000Y-125500000D03*
X97550000Y-123900000D03*
D53*
X110800000Y-92750000D03*
X115200000Y-92750000D03*
D17*
X52000000Y-54250000D03*
X52000000Y-56250000D03*
X40250000Y-56000000D03*
X40250000Y-58000000D03*
D57*
X114417677Y-76750000D03*
X111417677Y-76750000D03*
X114417677Y-73750000D03*
X111417677Y-73750000D03*
D58*
X72850000Y-90250000D03*
X70850000Y-90250000D03*
D10*
X109967677Y-52250000D03*
X108367677Y-52250000D03*
X114967677Y-53750000D03*
X113367677Y-53750000D03*
X114967677Y-55250000D03*
X113367677Y-55250000D03*
D12*
X90200000Y-91000000D03*
X91800000Y-91000000D03*
D42*
X86750000Y-91500000D03*
X86750000Y-96500000D03*
X81500000Y-91500000D03*
X81500000Y-96500000D03*
X76500000Y-91500000D03*
X76500000Y-96500000D03*
D12*
X128100000Y-100625000D03*
X129700000Y-100625000D03*
D59*
X78100000Y-121000000D03*
X72900000Y-121000000D03*
D12*
X133275000Y-74250000D03*
X134875000Y-74250000D03*
D57*
X189570000Y-124440000D03*
X186570000Y-124440000D03*
D10*
X226090000Y-91500000D03*
X224490000Y-91500000D03*
D19*
X205825000Y-109075000D03*
X205825000Y-107475000D03*
D42*
X152800000Y-122560000D03*
X152800000Y-127560000D03*
D60*
X195480000Y-93750000D03*
X198480000Y-93750000D03*
D22*
X94400000Y-86000000D03*
X94400000Y-87900000D03*
X96500000Y-86950000D03*
D26*
X84750000Y-110250000D03*
D27*
X85750000Y-109525000D03*
X86600000Y-109525000D03*
X87450000Y-109525000D03*
X88300000Y-109525000D03*
D26*
X84750000Y-108975000D03*
D27*
X85750000Y-108375000D03*
X86600000Y-108375000D03*
X87450000Y-108375000D03*
X88300000Y-108375000D03*
D26*
X84750000Y-107775000D03*
D27*
X85750000Y-107225000D03*
X86600000Y-107225000D03*
X87450000Y-107225000D03*
X88300000Y-107225000D03*
D26*
X84750000Y-106500000D03*
D25*
X90475000Y-106470000D03*
X90475000Y-110280000D03*
X90475000Y-109010000D03*
X90475000Y-107740000D03*
D22*
X175400000Y-126090000D03*
X175400000Y-127990000D03*
X177500000Y-127040000D03*
D61*
X179927500Y-84800000D03*
X178352500Y-84800000D03*
D23*
X220040000Y-63210000D03*
X220040000Y-66210000D03*
X218540000Y-66210000D03*
X218540000Y-63210000D03*
D62*
X226675000Y-138000000D03*
X227325000Y-138000000D03*
X227975000Y-138000000D03*
X228625000Y-138000000D03*
X229275000Y-138000000D03*
D63*
X225175000Y-138400000D03*
D64*
X225250000Y-140500000D03*
D65*
X227015000Y-141120000D03*
X228935000Y-141120000D03*
D64*
X230700000Y-140500000D03*
D63*
X230775000Y-138400000D03*
D66*
X53650000Y-49000000D03*
X50350000Y-49000000D03*
D67*
X56250000Y-53900000D03*
X56250000Y-50600000D03*
D68*
X71450000Y-87250000D03*
X74750000Y-87250000D03*
D31*
X138100000Y-78050000D03*
X140000000Y-78050000D03*
X139050000Y-75950000D03*
X144600000Y-82100000D03*
X146500000Y-82100000D03*
X145550000Y-80000000D03*
D69*
X95000000Y-92750000D03*
X101800000Y-92750000D03*
X69450000Y-127750000D03*
X76250000Y-127750000D03*
D70*
X220750000Y-129950000D03*
X221700000Y-129950000D03*
X222650000Y-129950000D03*
X222650000Y-127750000D03*
X221700000Y-127750000D03*
X220750000Y-127750000D03*
D71*
X177350000Y-122300000D03*
X178300000Y-124300000D03*
X179250000Y-122300000D03*
D55*
X169760000Y-123070000D03*
X171760000Y-122120000D03*
X169760000Y-121170000D03*
D72*
X122150000Y-99050000D03*
X122150000Y-97650000D03*
X126150000Y-104620000D03*
X126150000Y-103220000D03*
D31*
X173400000Y-124300000D03*
X175300000Y-124300000D03*
X174350000Y-122200000D03*
D40*
X171915594Y-84750000D03*
X171915594Y-81944404D03*
D19*
X177250000Y-95875000D03*
X177250000Y-94275000D03*
D12*
X112250000Y-101150000D03*
X113850000Y-101150000D03*
D16*
X52000000Y-58450000D03*
X52000000Y-60050000D03*
X40250000Y-59700000D03*
X40250000Y-61300000D03*
D73*
X55370000Y-105390000D03*
X57370000Y-105390000D03*
D10*
X106467677Y-55250000D03*
X104867677Y-55250000D03*
D73*
X55370000Y-102890000D03*
X57370000Y-102890000D03*
D19*
X111667677Y-55050000D03*
X111667677Y-53450000D03*
D12*
X124567677Y-51750000D03*
X126167677Y-51750000D03*
D58*
X152550000Y-79500000D03*
X150550000Y-79500000D03*
D16*
X149250000Y-68450000D03*
X149250000Y-70050000D03*
D74*
X145050000Y-73000000D03*
X142050000Y-73000000D03*
D12*
X143450000Y-78000000D03*
X145050000Y-78000000D03*
D75*
X124325000Y-98825000D03*
X124325000Y-95825000D03*
D19*
X129950000Y-104675000D03*
X129950000Y-103075000D03*
M02*
