G04 #@! TF.GenerationSoftware,KiCad,Pcbnew,8.0.8*
G04 #@! TF.CreationDate,2025-02-25T18:25:39+01:00*
G04 #@! TF.ProjectId,EPS,4550532e-6b69-4636-9164-5f7063625858,rev?*
G04 #@! TF.SameCoordinates,Original*
G04 #@! TF.FileFunction,Soldermask,Bot*
G04 #@! TF.FilePolarity,Negative*
%FSLAX46Y46*%
G04 Gerber Fmt 4.6, Leading zero omitted, Abs format (unit mm)*
G04 Created by KiCad (PCBNEW 8.0.8) date 2025-02-25 18:25:39*
%MOMM*%
%LPD*%
G01*
G04 APERTURE LIST*
G04 Aperture macros list*
%AMRoundRect*
0 Rectangle with rounded corners*
0 $1 Rounding radius*
0 $2 $3 $4 $5 $6 $7 $8 $9 X,Y pos of 4 corners*
0 Add a 4 corners polygon primitive as box body*
4,1,4,$2,$3,$4,$5,$6,$7,$8,$9,$2,$3,0*
0 Add four circle primitives for the rounded corners*
1,1,$1+$1,$2,$3*
1,1,$1+$1,$4,$5*
1,1,$1+$1,$6,$7*
1,1,$1+$1,$8,$9*
0 Add four rect primitives between the rounded corners*
20,1,$1+$1,$2,$3,$4,$5,0*
20,1,$1+$1,$4,$5,$6,$7,0*
20,1,$1+$1,$6,$7,$8,$9,0*
20,1,$1+$1,$8,$9,$2,$3,0*%
G04 Aperture macros list end*
%ADD10R,1.700000X1.700000*%
%ADD11O,1.700000X1.700000*%
%ADD12C,6.800000*%
%ADD13C,3.200000*%
%ADD14C,2.800000*%
%ADD15C,1.800000*%
%ADD16R,1.800000X1.800000*%
%ADD17C,2.500000*%
%ADD18O,2.000000X1.905000*%
%ADD19R,2.000000X1.905000*%
%ADD20O,6.500000X6.500000*%
%ADD21C,1.600000*%
%ADD22C,2.400000*%
%ADD23R,2.400000X2.400000*%
%ADD24O,1.905000X2.000000*%
%ADD25R,1.905000X2.000000*%
%ADD26C,1.700000*%
%ADD27RoundRect,0.250000X-0.600000X-0.725000X0.600000X-0.725000X0.600000X0.725000X-0.600000X0.725000X0*%
%ADD28O,1.700000X1.950000*%
%ADD29C,3.180000*%
%ADD30RoundRect,0.102000X-0.817500X-0.817500X0.817500X-0.817500X0.817500X0.817500X-0.817500X0.817500X0*%
%ADD31C,1.839000*%
%ADD32O,1.800000X1.800000*%
%ADD33C,1.100000*%
%ADD34R,2.000000X2.000000*%
%ADD35C,2.000000*%
G04 APERTURE END LIST*
D10*
X203210000Y-81210000D03*
D11*
X205750000Y-81210000D03*
X208290000Y-81210000D03*
X210830000Y-81210000D03*
X213370000Y-81210000D03*
D12*
X68000000Y-66500000D03*
X81000000Y-66500000D03*
D13*
X42500000Y-138250000D03*
D14*
X103515000Y-83300000D03*
X103515000Y-86700000D03*
X116985000Y-83300000D03*
X116985000Y-86700000D03*
D15*
X152780000Y-87475000D03*
D16*
X150240000Y-87475000D03*
D17*
X72725000Y-136500000D03*
X82225000Y-136500000D03*
D18*
X59287500Y-70040000D03*
X61827500Y-67500000D03*
D19*
X59287500Y-64960000D03*
D20*
X42627500Y-67500000D03*
D10*
X215365000Y-119500000D03*
D11*
X212825000Y-119500000D03*
X210285000Y-119500000D03*
X207745000Y-119500000D03*
X205205000Y-119500000D03*
D13*
X230500000Y-51500000D03*
D21*
X112300000Y-98650000D03*
X114800000Y-98650000D03*
D16*
X224290000Y-95000000D03*
D15*
X226830000Y-95000000D03*
D22*
X43727780Y-114500000D03*
D23*
X51227780Y-114500000D03*
D14*
X54750000Y-129420000D03*
X54750000Y-126020000D03*
X41280000Y-129420000D03*
X41280000Y-126020000D03*
D18*
X43462500Y-76210000D03*
X40922500Y-78750000D03*
D19*
X43462500Y-81290000D03*
D20*
X60122500Y-78750000D03*
D21*
X116132677Y-59450000D03*
X111132677Y-59450000D03*
D15*
X61015280Y-116510000D03*
X68515280Y-118410000D03*
D13*
X230500000Y-132290000D03*
D24*
X61210000Y-105037500D03*
X63750000Y-107577500D03*
D25*
X66290000Y-105037500D03*
D20*
X63750000Y-88377500D03*
D16*
X229750000Y-95000000D03*
D15*
X232290000Y-95000000D03*
D13*
X42500000Y-51500000D03*
D10*
X187375000Y-121140000D03*
D11*
X189915000Y-121140000D03*
D10*
X209750000Y-115765000D03*
D11*
X212290000Y-115765000D03*
D20*
X83127500Y-117000000D03*
D19*
X99787500Y-114460000D03*
D18*
X102327500Y-117000000D03*
X99787500Y-119540000D03*
D10*
X200145000Y-90490000D03*
D11*
X197605000Y-90490000D03*
D10*
X226750000Y-63090000D03*
D26*
X229290000Y-63090000D03*
X226750000Y-65630000D03*
X229290000Y-65630000D03*
X226750000Y-68170000D03*
X229290000Y-68170000D03*
X226750000Y-70710000D03*
X229290000Y-70710000D03*
X226750000Y-73250000D03*
X229290000Y-73250000D03*
D10*
X195025000Y-63935000D03*
D11*
X195025000Y-66475000D03*
D16*
X180440000Y-83300000D03*
D15*
X177900000Y-83300000D03*
D17*
X91725000Y-136500000D03*
X101225000Y-136500000D03*
D27*
X124630000Y-135160000D03*
D28*
X127130000Y-135160000D03*
X129630000Y-135160000D03*
X132130000Y-135160000D03*
X134630000Y-135160000D03*
X137130000Y-135160000D03*
X139630000Y-135160000D03*
X142130000Y-135160000D03*
D17*
X53730000Y-136500000D03*
X63230000Y-136500000D03*
D29*
X156950000Y-134540000D03*
X181950000Y-134540000D03*
D30*
X174990000Y-133120000D03*
D31*
X172220000Y-133120000D03*
X169450000Y-133120000D03*
X166680000Y-133120000D03*
X163910000Y-133120000D03*
X173605000Y-135960000D03*
X170835000Y-135960000D03*
X168065000Y-135960000D03*
X165295000Y-135960000D03*
D10*
X167850000Y-110580000D03*
D11*
X170390000Y-110580000D03*
X172930000Y-110580000D03*
X175470000Y-110580000D03*
D32*
X225245000Y-140880000D03*
D33*
X225555000Y-137800000D03*
X230395000Y-137800000D03*
D32*
X230705000Y-140880000D03*
D10*
X227290000Y-105880000D03*
D26*
X229830000Y-105880000D03*
X227290000Y-108420000D03*
X229830000Y-108420000D03*
X227290000Y-110960000D03*
X229830000Y-110960000D03*
X227290000Y-113500000D03*
X229830000Y-113500000D03*
X227290000Y-116040000D03*
X229830000Y-116040000D03*
D34*
X121000000Y-59250000D03*
D35*
X126000000Y-59250000D03*
D34*
X120867677Y-70750000D03*
D35*
X125867677Y-70750000D03*
D21*
X111167677Y-69250000D03*
X116167677Y-69250000D03*
D23*
X51227780Y-94000000D03*
D22*
X43727780Y-94000000D03*
M02*
