%TF.GenerationSoftware,KiCad,Pcbnew,8.0.8*%
%TF.CreationDate,2025-02-25T18:25:50+01:00*%
%TF.ProjectId,EPS,4550532e-6b69-4636-9164-5f7063625858,rev?*%
%TF.SameCoordinates,Original*%
%TF.FileFunction,Drillmap*%
%TF.FilePolarity,Positive*%
%FSLAX45Y45*%
G04 Gerber Fmt 4.5, Leading zero omitted, Abs format (unit mm)*
G04 Created by KiCad (PCBNEW 8.0.8) date 2025-02-25 18:25:50*
%MOMM*%
%LPD*%
G01*
G04 APERTURE LIST*
%ADD10C,0.200000*%
%ADD11C,0.318000*%
%ADD12C,0.320000*%
%ADD13C,0.650000*%
G04 APERTURE END LIST*
D10*
X3700000Y-4525000D02*
X23650000Y-4525000D01*
X23650000Y-14475000D01*
X3700000Y-14475000D01*
X3700000Y-4525000D01*
D11*
X15536000Y-13295000D02*
X15854000Y-13613000D01*
X15854000Y-13295000D02*
X15536000Y-13613000D01*
X18036000Y-13295000D02*
X18354000Y-13613000D01*
X18354000Y-13295000D02*
X18036000Y-13613000D01*
D12*
X4410000Y-5150000D02*
G75*
G02*
X4090000Y-5150000I-160000J0D01*
G01*
X4090000Y-5150000D02*
G75*
G02*
X4410000Y-5150000I160000J0D01*
G01*
X4410000Y-13825000D02*
G75*
G02*
X4090000Y-13825000I-160000J0D01*
G01*
X4090000Y-13825000D02*
G75*
G02*
X4410000Y-13825000I160000J0D01*
G01*
X23210000Y-5150000D02*
G75*
G02*
X22890000Y-5150000I-160000J0D01*
G01*
X22890000Y-5150000D02*
G75*
G02*
X23210000Y-5150000I160000J0D01*
G01*
X23210000Y-13229000D02*
G75*
G02*
X22890000Y-13229000I-160000J0D01*
G01*
X22890000Y-13229000D02*
G75*
G02*
X23210000Y-13229000I160000J0D01*
G01*
D13*
X4262750Y-6425000D02*
X4262750Y-7075000D01*
X3937750Y-6750000D02*
X4587750Y-6750000D01*
X6012250Y-7550000D02*
X6012250Y-8200000D01*
X5687250Y-7875000D02*
X6337250Y-7875000D01*
X6375000Y-8512750D02*
X6375000Y-9162750D01*
X6050000Y-8837750D02*
X6700000Y-8837750D01*
X8312750Y-11375000D02*
X8312750Y-12025000D01*
X7987750Y-11700000D02*
X8637750Y-11700000D01*
D10*
X3950777Y-14796484D02*
X3950777Y-14596484D01*
X3950777Y-14596484D02*
X3998396Y-14596484D01*
X3998396Y-14596484D02*
X4026967Y-14606008D01*
X4026967Y-14606008D02*
X4046015Y-14625055D01*
X4046015Y-14625055D02*
X4055539Y-14644103D01*
X4055539Y-14644103D02*
X4065062Y-14682198D01*
X4065062Y-14682198D02*
X4065062Y-14710769D01*
X4065062Y-14710769D02*
X4055539Y-14748865D01*
X4055539Y-14748865D02*
X4046015Y-14767912D01*
X4046015Y-14767912D02*
X4026967Y-14786960D01*
X4026967Y-14786960D02*
X3998396Y-14796484D01*
X3998396Y-14796484D02*
X3950777Y-14796484D01*
X4150777Y-14796484D02*
X4150777Y-14663150D01*
X4150777Y-14701246D02*
X4160301Y-14682198D01*
X4160301Y-14682198D02*
X4169824Y-14672674D01*
X4169824Y-14672674D02*
X4188872Y-14663150D01*
X4188872Y-14663150D02*
X4207920Y-14663150D01*
X4274586Y-14796484D02*
X4274586Y-14663150D01*
X4274586Y-14596484D02*
X4265063Y-14606008D01*
X4265063Y-14606008D02*
X4274586Y-14615531D01*
X4274586Y-14615531D02*
X4284110Y-14606008D01*
X4284110Y-14606008D02*
X4274586Y-14596484D01*
X4274586Y-14596484D02*
X4274586Y-14615531D01*
X4398396Y-14796484D02*
X4379348Y-14786960D01*
X4379348Y-14786960D02*
X4369824Y-14767912D01*
X4369824Y-14767912D02*
X4369824Y-14596484D01*
X4503158Y-14796484D02*
X4484110Y-14786960D01*
X4484110Y-14786960D02*
X4474586Y-14767912D01*
X4474586Y-14767912D02*
X4474586Y-14596484D01*
X4731729Y-14796484D02*
X4731729Y-14596484D01*
X4731729Y-14596484D02*
X4798396Y-14739341D01*
X4798396Y-14739341D02*
X4865063Y-14596484D01*
X4865063Y-14596484D02*
X4865063Y-14796484D01*
X5046015Y-14796484D02*
X5046015Y-14691722D01*
X5046015Y-14691722D02*
X5036491Y-14672674D01*
X5036491Y-14672674D02*
X5017444Y-14663150D01*
X5017444Y-14663150D02*
X4979348Y-14663150D01*
X4979348Y-14663150D02*
X4960301Y-14672674D01*
X5046015Y-14786960D02*
X5026967Y-14796484D01*
X5026967Y-14796484D02*
X4979348Y-14796484D01*
X4979348Y-14796484D02*
X4960301Y-14786960D01*
X4960301Y-14786960D02*
X4950777Y-14767912D01*
X4950777Y-14767912D02*
X4950777Y-14748865D01*
X4950777Y-14748865D02*
X4960301Y-14729817D01*
X4960301Y-14729817D02*
X4979348Y-14720293D01*
X4979348Y-14720293D02*
X5026967Y-14720293D01*
X5026967Y-14720293D02*
X5046015Y-14710769D01*
X5141253Y-14663150D02*
X5141253Y-14863150D01*
X5141253Y-14672674D02*
X5160301Y-14663150D01*
X5160301Y-14663150D02*
X5198396Y-14663150D01*
X5198396Y-14663150D02*
X5217444Y-14672674D01*
X5217444Y-14672674D02*
X5226967Y-14682198D01*
X5226967Y-14682198D02*
X5236491Y-14701246D01*
X5236491Y-14701246D02*
X5236491Y-14758388D01*
X5236491Y-14758388D02*
X5226967Y-14777436D01*
X5226967Y-14777436D02*
X5217444Y-14786960D01*
X5217444Y-14786960D02*
X5198396Y-14796484D01*
X5198396Y-14796484D02*
X5160301Y-14796484D01*
X5160301Y-14796484D02*
X5141253Y-14786960D01*
X5322205Y-14777436D02*
X5331729Y-14786960D01*
X5331729Y-14786960D02*
X5322205Y-14796484D01*
X5322205Y-14796484D02*
X5312682Y-14786960D01*
X5312682Y-14786960D02*
X5322205Y-14777436D01*
X5322205Y-14777436D02*
X5322205Y-14796484D01*
X5322205Y-14672674D02*
X5331729Y-14682198D01*
X5331729Y-14682198D02*
X5322205Y-14691722D01*
X5322205Y-14691722D02*
X5312682Y-14682198D01*
X5312682Y-14682198D02*
X5322205Y-14672674D01*
X5322205Y-14672674D02*
X5322205Y-14691722D01*
X3490000Y-15025000D02*
X3690000Y-15225000D01*
X3690000Y-15025000D02*
X3490000Y-15225000D01*
X3931729Y-15016484D02*
X4055539Y-15016484D01*
X4055539Y-15016484D02*
X3988872Y-15092674D01*
X3988872Y-15092674D02*
X4017443Y-15092674D01*
X4017443Y-15092674D02*
X4036491Y-15102198D01*
X4036491Y-15102198D02*
X4046015Y-15111722D01*
X4046015Y-15111722D02*
X4055539Y-15130769D01*
X4055539Y-15130769D02*
X4055539Y-15178388D01*
X4055539Y-15178388D02*
X4046015Y-15197436D01*
X4046015Y-15197436D02*
X4036491Y-15206960D01*
X4036491Y-15206960D02*
X4017443Y-15216484D01*
X4017443Y-15216484D02*
X3960301Y-15216484D01*
X3960301Y-15216484D02*
X3941253Y-15206960D01*
X3941253Y-15206960D02*
X3931729Y-15197436D01*
X4141253Y-15197436D02*
X4150777Y-15206960D01*
X4150777Y-15206960D02*
X4141253Y-15216484D01*
X4141253Y-15216484D02*
X4131729Y-15206960D01*
X4131729Y-15206960D02*
X4141253Y-15197436D01*
X4141253Y-15197436D02*
X4141253Y-15216484D01*
X4341253Y-15216484D02*
X4226967Y-15216484D01*
X4284110Y-15216484D02*
X4284110Y-15016484D01*
X4284110Y-15016484D02*
X4265063Y-15045055D01*
X4265063Y-15045055D02*
X4246015Y-15064103D01*
X4246015Y-15064103D02*
X4226967Y-15073627D01*
X4455539Y-15102198D02*
X4436491Y-15092674D01*
X4436491Y-15092674D02*
X4426967Y-15083150D01*
X4426967Y-15083150D02*
X4417444Y-15064103D01*
X4417444Y-15064103D02*
X4417444Y-15054579D01*
X4417444Y-15054579D02*
X4426967Y-15035531D01*
X4426967Y-15035531D02*
X4436491Y-15026008D01*
X4436491Y-15026008D02*
X4455539Y-15016484D01*
X4455539Y-15016484D02*
X4493634Y-15016484D01*
X4493634Y-15016484D02*
X4512682Y-15026008D01*
X4512682Y-15026008D02*
X4522205Y-15035531D01*
X4522205Y-15035531D02*
X4531729Y-15054579D01*
X4531729Y-15054579D02*
X4531729Y-15064103D01*
X4531729Y-15064103D02*
X4522205Y-15083150D01*
X4522205Y-15083150D02*
X4512682Y-15092674D01*
X4512682Y-15092674D02*
X4493634Y-15102198D01*
X4493634Y-15102198D02*
X4455539Y-15102198D01*
X4455539Y-15102198D02*
X4436491Y-15111722D01*
X4436491Y-15111722D02*
X4426967Y-15121246D01*
X4426967Y-15121246D02*
X4417444Y-15140293D01*
X4417444Y-15140293D02*
X4417444Y-15178388D01*
X4417444Y-15178388D02*
X4426967Y-15197436D01*
X4426967Y-15197436D02*
X4436491Y-15206960D01*
X4436491Y-15206960D02*
X4455539Y-15216484D01*
X4455539Y-15216484D02*
X4493634Y-15216484D01*
X4493634Y-15216484D02*
X4512682Y-15206960D01*
X4512682Y-15206960D02*
X4522205Y-15197436D01*
X4522205Y-15197436D02*
X4531729Y-15178388D01*
X4531729Y-15178388D02*
X4531729Y-15140293D01*
X4531729Y-15140293D02*
X4522205Y-15121246D01*
X4522205Y-15121246D02*
X4512682Y-15111722D01*
X4512682Y-15111722D02*
X4493634Y-15102198D01*
X4655539Y-15016484D02*
X4674586Y-15016484D01*
X4674586Y-15016484D02*
X4693634Y-15026008D01*
X4693634Y-15026008D02*
X4703158Y-15035531D01*
X4703158Y-15035531D02*
X4712682Y-15054579D01*
X4712682Y-15054579D02*
X4722205Y-15092674D01*
X4722205Y-15092674D02*
X4722205Y-15140293D01*
X4722205Y-15140293D02*
X4712682Y-15178388D01*
X4712682Y-15178388D02*
X4703158Y-15197436D01*
X4703158Y-15197436D02*
X4693634Y-15206960D01*
X4693634Y-15206960D02*
X4674586Y-15216484D01*
X4674586Y-15216484D02*
X4655539Y-15216484D01*
X4655539Y-15216484D02*
X4636491Y-15206960D01*
X4636491Y-15206960D02*
X4626967Y-15197436D01*
X4626967Y-15197436D02*
X4617444Y-15178388D01*
X4617444Y-15178388D02*
X4607920Y-15140293D01*
X4607920Y-15140293D02*
X4607920Y-15092674D01*
X4607920Y-15092674D02*
X4617444Y-15054579D01*
X4617444Y-15054579D02*
X4626967Y-15035531D01*
X4626967Y-15035531D02*
X4636491Y-15026008D01*
X4636491Y-15026008D02*
X4655539Y-15016484D01*
X4807920Y-15216484D02*
X4807920Y-15083150D01*
X4807920Y-15102198D02*
X4817444Y-15092674D01*
X4817444Y-15092674D02*
X4836491Y-15083150D01*
X4836491Y-15083150D02*
X4865063Y-15083150D01*
X4865063Y-15083150D02*
X4884110Y-15092674D01*
X4884110Y-15092674D02*
X4893634Y-15111722D01*
X4893634Y-15111722D02*
X4893634Y-15216484D01*
X4893634Y-15111722D02*
X4903158Y-15092674D01*
X4903158Y-15092674D02*
X4922205Y-15083150D01*
X4922205Y-15083150D02*
X4950777Y-15083150D01*
X4950777Y-15083150D02*
X4969825Y-15092674D01*
X4969825Y-15092674D02*
X4979348Y-15111722D01*
X4979348Y-15111722D02*
X4979348Y-15216484D01*
X5074586Y-15216484D02*
X5074586Y-15083150D01*
X5074586Y-15102198D02*
X5084110Y-15092674D01*
X5084110Y-15092674D02*
X5103158Y-15083150D01*
X5103158Y-15083150D02*
X5131729Y-15083150D01*
X5131729Y-15083150D02*
X5150777Y-15092674D01*
X5150777Y-15092674D02*
X5160301Y-15111722D01*
X5160301Y-15111722D02*
X5160301Y-15216484D01*
X5160301Y-15111722D02*
X5169825Y-15092674D01*
X5169825Y-15092674D02*
X5188872Y-15083150D01*
X5188872Y-15083150D02*
X5217444Y-15083150D01*
X5217444Y-15083150D02*
X5236491Y-15092674D01*
X5236491Y-15092674D02*
X5246015Y-15111722D01*
X5246015Y-15111722D02*
X5246015Y-15216484D01*
X5636491Y-15006960D02*
X5465063Y-15264103D01*
X5893634Y-15016484D02*
X5912682Y-15016484D01*
X5912682Y-15016484D02*
X5931729Y-15026008D01*
X5931729Y-15026008D02*
X5941253Y-15035531D01*
X5941253Y-15035531D02*
X5950777Y-15054579D01*
X5950777Y-15054579D02*
X5960301Y-15092674D01*
X5960301Y-15092674D02*
X5960301Y-15140293D01*
X5960301Y-15140293D02*
X5950777Y-15178388D01*
X5950777Y-15178388D02*
X5941253Y-15197436D01*
X5941253Y-15197436D02*
X5931729Y-15206960D01*
X5931729Y-15206960D02*
X5912682Y-15216484D01*
X5912682Y-15216484D02*
X5893634Y-15216484D01*
X5893634Y-15216484D02*
X5874586Y-15206960D01*
X5874586Y-15206960D02*
X5865063Y-15197436D01*
X5865063Y-15197436D02*
X5855539Y-15178388D01*
X5855539Y-15178388D02*
X5846015Y-15140293D01*
X5846015Y-15140293D02*
X5846015Y-15092674D01*
X5846015Y-15092674D02*
X5855539Y-15054579D01*
X5855539Y-15054579D02*
X5865063Y-15035531D01*
X5865063Y-15035531D02*
X5874586Y-15026008D01*
X5874586Y-15026008D02*
X5893634Y-15016484D01*
X6046015Y-15197436D02*
X6055539Y-15206960D01*
X6055539Y-15206960D02*
X6046015Y-15216484D01*
X6046015Y-15216484D02*
X6036491Y-15206960D01*
X6036491Y-15206960D02*
X6046015Y-15197436D01*
X6046015Y-15197436D02*
X6046015Y-15216484D01*
X6246015Y-15216484D02*
X6131729Y-15216484D01*
X6188872Y-15216484D02*
X6188872Y-15016484D01*
X6188872Y-15016484D02*
X6169825Y-15045055D01*
X6169825Y-15045055D02*
X6150777Y-15064103D01*
X6150777Y-15064103D02*
X6131729Y-15073627D01*
X6322206Y-15035531D02*
X6331729Y-15026008D01*
X6331729Y-15026008D02*
X6350777Y-15016484D01*
X6350777Y-15016484D02*
X6398396Y-15016484D01*
X6398396Y-15016484D02*
X6417444Y-15026008D01*
X6417444Y-15026008D02*
X6426967Y-15035531D01*
X6426967Y-15035531D02*
X6436491Y-15054579D01*
X6436491Y-15054579D02*
X6436491Y-15073627D01*
X6436491Y-15073627D02*
X6426967Y-15102198D01*
X6426967Y-15102198D02*
X6312682Y-15216484D01*
X6312682Y-15216484D02*
X6436491Y-15216484D01*
X6617444Y-15016484D02*
X6522206Y-15016484D01*
X6522206Y-15016484D02*
X6512682Y-15111722D01*
X6512682Y-15111722D02*
X6522206Y-15102198D01*
X6522206Y-15102198D02*
X6541253Y-15092674D01*
X6541253Y-15092674D02*
X6588872Y-15092674D01*
X6588872Y-15092674D02*
X6607920Y-15102198D01*
X6607920Y-15102198D02*
X6617444Y-15111722D01*
X6617444Y-15111722D02*
X6626967Y-15130769D01*
X6626967Y-15130769D02*
X6626967Y-15178388D01*
X6626967Y-15178388D02*
X6617444Y-15197436D01*
X6617444Y-15197436D02*
X6607920Y-15206960D01*
X6607920Y-15206960D02*
X6588872Y-15216484D01*
X6588872Y-15216484D02*
X6541253Y-15216484D01*
X6541253Y-15216484D02*
X6522206Y-15206960D01*
X6522206Y-15206960D02*
X6512682Y-15197436D01*
X6703158Y-15035531D02*
X6712682Y-15026008D01*
X6712682Y-15026008D02*
X6731729Y-15016484D01*
X6731729Y-15016484D02*
X6779348Y-15016484D01*
X6779348Y-15016484D02*
X6798396Y-15026008D01*
X6798396Y-15026008D02*
X6807920Y-15035531D01*
X6807920Y-15035531D02*
X6817444Y-15054579D01*
X6817444Y-15054579D02*
X6817444Y-15073627D01*
X6817444Y-15073627D02*
X6807920Y-15102198D01*
X6807920Y-15102198D02*
X6693634Y-15216484D01*
X6693634Y-15216484D02*
X6817444Y-15216484D01*
X6893634Y-15016484D02*
X6893634Y-15054579D01*
X6969825Y-15016484D02*
X6969825Y-15054579D01*
X7265063Y-15292674D02*
X7255539Y-15283150D01*
X7255539Y-15283150D02*
X7236491Y-15254579D01*
X7236491Y-15254579D02*
X7226968Y-15235531D01*
X7226968Y-15235531D02*
X7217444Y-15206960D01*
X7217444Y-15206960D02*
X7207920Y-15159341D01*
X7207920Y-15159341D02*
X7207920Y-15121246D01*
X7207920Y-15121246D02*
X7217444Y-15073627D01*
X7217444Y-15073627D02*
X7226968Y-15045055D01*
X7226968Y-15045055D02*
X7236491Y-15026008D01*
X7236491Y-15026008D02*
X7255539Y-14997436D01*
X7255539Y-14997436D02*
X7265063Y-14987912D01*
X7331729Y-15035531D02*
X7341253Y-15026008D01*
X7341253Y-15026008D02*
X7360301Y-15016484D01*
X7360301Y-15016484D02*
X7407920Y-15016484D01*
X7407920Y-15016484D02*
X7426968Y-15026008D01*
X7426968Y-15026008D02*
X7436491Y-15035531D01*
X7436491Y-15035531D02*
X7446015Y-15054579D01*
X7446015Y-15054579D02*
X7446015Y-15073627D01*
X7446015Y-15073627D02*
X7436491Y-15102198D01*
X7436491Y-15102198D02*
X7322206Y-15216484D01*
X7322206Y-15216484D02*
X7446015Y-15216484D01*
X7684110Y-15216484D02*
X7684110Y-15016484D01*
X7769825Y-15216484D02*
X7769825Y-15111722D01*
X7769825Y-15111722D02*
X7760301Y-15092674D01*
X7760301Y-15092674D02*
X7741253Y-15083150D01*
X7741253Y-15083150D02*
X7712682Y-15083150D01*
X7712682Y-15083150D02*
X7693634Y-15092674D01*
X7693634Y-15092674D02*
X7684110Y-15102198D01*
X7893634Y-15216484D02*
X7874587Y-15206960D01*
X7874587Y-15206960D02*
X7865063Y-15197436D01*
X7865063Y-15197436D02*
X7855539Y-15178388D01*
X7855539Y-15178388D02*
X7855539Y-15121246D01*
X7855539Y-15121246D02*
X7865063Y-15102198D01*
X7865063Y-15102198D02*
X7874587Y-15092674D01*
X7874587Y-15092674D02*
X7893634Y-15083150D01*
X7893634Y-15083150D02*
X7922206Y-15083150D01*
X7922206Y-15083150D02*
X7941253Y-15092674D01*
X7941253Y-15092674D02*
X7950777Y-15102198D01*
X7950777Y-15102198D02*
X7960301Y-15121246D01*
X7960301Y-15121246D02*
X7960301Y-15178388D01*
X7960301Y-15178388D02*
X7950777Y-15197436D01*
X7950777Y-15197436D02*
X7941253Y-15206960D01*
X7941253Y-15206960D02*
X7922206Y-15216484D01*
X7922206Y-15216484D02*
X7893634Y-15216484D01*
X8074587Y-15216484D02*
X8055539Y-15206960D01*
X8055539Y-15206960D02*
X8046015Y-15187912D01*
X8046015Y-15187912D02*
X8046015Y-15016484D01*
X8226968Y-15206960D02*
X8207920Y-15216484D01*
X8207920Y-15216484D02*
X8169825Y-15216484D01*
X8169825Y-15216484D02*
X8150777Y-15206960D01*
X8150777Y-15206960D02*
X8141253Y-15187912D01*
X8141253Y-15187912D02*
X8141253Y-15111722D01*
X8141253Y-15111722D02*
X8150777Y-15092674D01*
X8150777Y-15092674D02*
X8169825Y-15083150D01*
X8169825Y-15083150D02*
X8207920Y-15083150D01*
X8207920Y-15083150D02*
X8226968Y-15092674D01*
X8226968Y-15092674D02*
X8236491Y-15111722D01*
X8236491Y-15111722D02*
X8236491Y-15130769D01*
X8236491Y-15130769D02*
X8141253Y-15149817D01*
X8312682Y-15206960D02*
X8331730Y-15216484D01*
X8331730Y-15216484D02*
X8369825Y-15216484D01*
X8369825Y-15216484D02*
X8388873Y-15206960D01*
X8388873Y-15206960D02*
X8398396Y-15187912D01*
X8398396Y-15187912D02*
X8398396Y-15178388D01*
X8398396Y-15178388D02*
X8388873Y-15159341D01*
X8388873Y-15159341D02*
X8369825Y-15149817D01*
X8369825Y-15149817D02*
X8341253Y-15149817D01*
X8341253Y-15149817D02*
X8322206Y-15140293D01*
X8322206Y-15140293D02*
X8312682Y-15121246D01*
X8312682Y-15121246D02*
X8312682Y-15111722D01*
X8312682Y-15111722D02*
X8322206Y-15092674D01*
X8322206Y-15092674D02*
X8341253Y-15083150D01*
X8341253Y-15083150D02*
X8369825Y-15083150D01*
X8369825Y-15083150D02*
X8388873Y-15092674D01*
X8465063Y-15292674D02*
X8474587Y-15283150D01*
X8474587Y-15283150D02*
X8493634Y-15254579D01*
X8493634Y-15254579D02*
X8503158Y-15235531D01*
X8503158Y-15235531D02*
X8512682Y-15206960D01*
X8512682Y-15206960D02*
X8522206Y-15159341D01*
X8522206Y-15159341D02*
X8522206Y-15121246D01*
X8522206Y-15121246D02*
X8512682Y-15073627D01*
X8512682Y-15073627D02*
X8503158Y-15045055D01*
X8503158Y-15045055D02*
X8493634Y-15026008D01*
X8493634Y-15026008D02*
X8474587Y-14997436D01*
X8474587Y-14997436D02*
X8465063Y-14987912D01*
X8826968Y-15292674D02*
X8817444Y-15283150D01*
X8817444Y-15283150D02*
X8798396Y-15254579D01*
X8798396Y-15254579D02*
X8788873Y-15235531D01*
X8788873Y-15235531D02*
X8779349Y-15206960D01*
X8779349Y-15206960D02*
X8769825Y-15159341D01*
X8769825Y-15159341D02*
X8769825Y-15121246D01*
X8769825Y-15121246D02*
X8779349Y-15073627D01*
X8779349Y-15073627D02*
X8788873Y-15045055D01*
X8788873Y-15045055D02*
X8798396Y-15026008D01*
X8798396Y-15026008D02*
X8817444Y-14997436D01*
X8817444Y-14997436D02*
X8826968Y-14987912D01*
X8903158Y-15083150D02*
X8903158Y-15216484D01*
X8903158Y-15102198D02*
X8912682Y-15092674D01*
X8912682Y-15092674D02*
X8931730Y-15083150D01*
X8931730Y-15083150D02*
X8960301Y-15083150D01*
X8960301Y-15083150D02*
X8979349Y-15092674D01*
X8979349Y-15092674D02*
X8988873Y-15111722D01*
X8988873Y-15111722D02*
X8988873Y-15216484D01*
X9112682Y-15216484D02*
X9093634Y-15206960D01*
X9093634Y-15206960D02*
X9084111Y-15197436D01*
X9084111Y-15197436D02*
X9074587Y-15178388D01*
X9074587Y-15178388D02*
X9074587Y-15121246D01*
X9074587Y-15121246D02*
X9084111Y-15102198D01*
X9084111Y-15102198D02*
X9093634Y-15092674D01*
X9093634Y-15092674D02*
X9112682Y-15083150D01*
X9112682Y-15083150D02*
X9141254Y-15083150D01*
X9141254Y-15083150D02*
X9160301Y-15092674D01*
X9160301Y-15092674D02*
X9169825Y-15102198D01*
X9169825Y-15102198D02*
X9179349Y-15121246D01*
X9179349Y-15121246D02*
X9179349Y-15178388D01*
X9179349Y-15178388D02*
X9169825Y-15197436D01*
X9169825Y-15197436D02*
X9160301Y-15206960D01*
X9160301Y-15206960D02*
X9141254Y-15216484D01*
X9141254Y-15216484D02*
X9112682Y-15216484D01*
X9236492Y-15083150D02*
X9312682Y-15083150D01*
X9265063Y-15016484D02*
X9265063Y-15187912D01*
X9265063Y-15187912D02*
X9274587Y-15206960D01*
X9274587Y-15206960D02*
X9293634Y-15216484D01*
X9293634Y-15216484D02*
X9312682Y-15216484D01*
X9531730Y-15083150D02*
X9531730Y-15283150D01*
X9531730Y-15092674D02*
X9550777Y-15083150D01*
X9550777Y-15083150D02*
X9588873Y-15083150D01*
X9588873Y-15083150D02*
X9607920Y-15092674D01*
X9607920Y-15092674D02*
X9617444Y-15102198D01*
X9617444Y-15102198D02*
X9626968Y-15121246D01*
X9626968Y-15121246D02*
X9626968Y-15178388D01*
X9626968Y-15178388D02*
X9617444Y-15197436D01*
X9617444Y-15197436D02*
X9607920Y-15206960D01*
X9607920Y-15206960D02*
X9588873Y-15216484D01*
X9588873Y-15216484D02*
X9550777Y-15216484D01*
X9550777Y-15216484D02*
X9531730Y-15206960D01*
X9741254Y-15216484D02*
X9722206Y-15206960D01*
X9722206Y-15206960D02*
X9712682Y-15187912D01*
X9712682Y-15187912D02*
X9712682Y-15016484D01*
X9903158Y-15216484D02*
X9903158Y-15111722D01*
X9903158Y-15111722D02*
X9893635Y-15092674D01*
X9893635Y-15092674D02*
X9874587Y-15083150D01*
X9874587Y-15083150D02*
X9836492Y-15083150D01*
X9836492Y-15083150D02*
X9817444Y-15092674D01*
X9903158Y-15206960D02*
X9884111Y-15216484D01*
X9884111Y-15216484D02*
X9836492Y-15216484D01*
X9836492Y-15216484D02*
X9817444Y-15206960D01*
X9817444Y-15206960D02*
X9807920Y-15187912D01*
X9807920Y-15187912D02*
X9807920Y-15168865D01*
X9807920Y-15168865D02*
X9817444Y-15149817D01*
X9817444Y-15149817D02*
X9836492Y-15140293D01*
X9836492Y-15140293D02*
X9884111Y-15140293D01*
X9884111Y-15140293D02*
X9903158Y-15130769D01*
X9969825Y-15083150D02*
X10046015Y-15083150D01*
X9998396Y-15016484D02*
X9998396Y-15187912D01*
X9998396Y-15187912D02*
X10007920Y-15206960D01*
X10007920Y-15206960D02*
X10026968Y-15216484D01*
X10026968Y-15216484D02*
X10046015Y-15216484D01*
X10188873Y-15206960D02*
X10169825Y-15216484D01*
X10169825Y-15216484D02*
X10131730Y-15216484D01*
X10131730Y-15216484D02*
X10112682Y-15206960D01*
X10112682Y-15206960D02*
X10103158Y-15187912D01*
X10103158Y-15187912D02*
X10103158Y-15111722D01*
X10103158Y-15111722D02*
X10112682Y-15092674D01*
X10112682Y-15092674D02*
X10131730Y-15083150D01*
X10131730Y-15083150D02*
X10169825Y-15083150D01*
X10169825Y-15083150D02*
X10188873Y-15092674D01*
X10188873Y-15092674D02*
X10198396Y-15111722D01*
X10198396Y-15111722D02*
X10198396Y-15130769D01*
X10198396Y-15130769D02*
X10103158Y-15149817D01*
X10369825Y-15216484D02*
X10369825Y-15016484D01*
X10369825Y-15206960D02*
X10350777Y-15216484D01*
X10350777Y-15216484D02*
X10312682Y-15216484D01*
X10312682Y-15216484D02*
X10293635Y-15206960D01*
X10293635Y-15206960D02*
X10284111Y-15197436D01*
X10284111Y-15197436D02*
X10274587Y-15178388D01*
X10274587Y-15178388D02*
X10274587Y-15121246D01*
X10274587Y-15121246D02*
X10284111Y-15102198D01*
X10284111Y-15102198D02*
X10293635Y-15092674D01*
X10293635Y-15092674D02*
X10312682Y-15083150D01*
X10312682Y-15083150D02*
X10350777Y-15083150D01*
X10350777Y-15083150D02*
X10369825Y-15092674D01*
X10446016Y-15292674D02*
X10455539Y-15283150D01*
X10455539Y-15283150D02*
X10474587Y-15254579D01*
X10474587Y-15254579D02*
X10484111Y-15235531D01*
X10484111Y-15235531D02*
X10493635Y-15206960D01*
X10493635Y-15206960D02*
X10503158Y-15159341D01*
X10503158Y-15159341D02*
X10503158Y-15121246D01*
X10503158Y-15121246D02*
X10493635Y-15073627D01*
X10493635Y-15073627D02*
X10484111Y-15045055D01*
X10484111Y-15045055D02*
X10474587Y-15026008D01*
X10474587Y-15026008D02*
X10455539Y-14997436D01*
X10455539Y-14997436D02*
X10446016Y-14987912D01*
X3690000Y-15445000D02*
G75*
G02*
X3490000Y-15445000I-100000J0D01*
G01*
X3490000Y-15445000D02*
G75*
G02*
X3690000Y-15445000I100000J0D01*
G01*
X3931729Y-15336484D02*
X4055539Y-15336484D01*
X4055539Y-15336484D02*
X3988872Y-15412674D01*
X3988872Y-15412674D02*
X4017443Y-15412674D01*
X4017443Y-15412674D02*
X4036491Y-15422198D01*
X4036491Y-15422198D02*
X4046015Y-15431722D01*
X4046015Y-15431722D02*
X4055539Y-15450769D01*
X4055539Y-15450769D02*
X4055539Y-15498388D01*
X4055539Y-15498388D02*
X4046015Y-15517436D01*
X4046015Y-15517436D02*
X4036491Y-15526960D01*
X4036491Y-15526960D02*
X4017443Y-15536484D01*
X4017443Y-15536484D02*
X3960301Y-15536484D01*
X3960301Y-15536484D02*
X3941253Y-15526960D01*
X3941253Y-15526960D02*
X3931729Y-15517436D01*
X4141253Y-15517436D02*
X4150777Y-15526960D01*
X4150777Y-15526960D02*
X4141253Y-15536484D01*
X4141253Y-15536484D02*
X4131729Y-15526960D01*
X4131729Y-15526960D02*
X4141253Y-15517436D01*
X4141253Y-15517436D02*
X4141253Y-15536484D01*
X4226967Y-15355531D02*
X4236491Y-15346008D01*
X4236491Y-15346008D02*
X4255539Y-15336484D01*
X4255539Y-15336484D02*
X4303158Y-15336484D01*
X4303158Y-15336484D02*
X4322205Y-15346008D01*
X4322205Y-15346008D02*
X4331729Y-15355531D01*
X4331729Y-15355531D02*
X4341253Y-15374579D01*
X4341253Y-15374579D02*
X4341253Y-15393627D01*
X4341253Y-15393627D02*
X4331729Y-15422198D01*
X4331729Y-15422198D02*
X4217444Y-15536484D01*
X4217444Y-15536484D02*
X4341253Y-15536484D01*
X4465063Y-15336484D02*
X4484110Y-15336484D01*
X4484110Y-15336484D02*
X4503158Y-15346008D01*
X4503158Y-15346008D02*
X4512682Y-15355531D01*
X4512682Y-15355531D02*
X4522205Y-15374579D01*
X4522205Y-15374579D02*
X4531729Y-15412674D01*
X4531729Y-15412674D02*
X4531729Y-15460293D01*
X4531729Y-15460293D02*
X4522205Y-15498388D01*
X4522205Y-15498388D02*
X4512682Y-15517436D01*
X4512682Y-15517436D02*
X4503158Y-15526960D01*
X4503158Y-15526960D02*
X4484110Y-15536484D01*
X4484110Y-15536484D02*
X4465063Y-15536484D01*
X4465063Y-15536484D02*
X4446015Y-15526960D01*
X4446015Y-15526960D02*
X4436491Y-15517436D01*
X4436491Y-15517436D02*
X4426967Y-15498388D01*
X4426967Y-15498388D02*
X4417444Y-15460293D01*
X4417444Y-15460293D02*
X4417444Y-15412674D01*
X4417444Y-15412674D02*
X4426967Y-15374579D01*
X4426967Y-15374579D02*
X4436491Y-15355531D01*
X4436491Y-15355531D02*
X4446015Y-15346008D01*
X4446015Y-15346008D02*
X4465063Y-15336484D01*
X4655539Y-15336484D02*
X4674586Y-15336484D01*
X4674586Y-15336484D02*
X4693634Y-15346008D01*
X4693634Y-15346008D02*
X4703158Y-15355531D01*
X4703158Y-15355531D02*
X4712682Y-15374579D01*
X4712682Y-15374579D02*
X4722205Y-15412674D01*
X4722205Y-15412674D02*
X4722205Y-15460293D01*
X4722205Y-15460293D02*
X4712682Y-15498388D01*
X4712682Y-15498388D02*
X4703158Y-15517436D01*
X4703158Y-15517436D02*
X4693634Y-15526960D01*
X4693634Y-15526960D02*
X4674586Y-15536484D01*
X4674586Y-15536484D02*
X4655539Y-15536484D01*
X4655539Y-15536484D02*
X4636491Y-15526960D01*
X4636491Y-15526960D02*
X4626967Y-15517436D01*
X4626967Y-15517436D02*
X4617444Y-15498388D01*
X4617444Y-15498388D02*
X4607920Y-15460293D01*
X4607920Y-15460293D02*
X4607920Y-15412674D01*
X4607920Y-15412674D02*
X4617444Y-15374579D01*
X4617444Y-15374579D02*
X4626967Y-15355531D01*
X4626967Y-15355531D02*
X4636491Y-15346008D01*
X4636491Y-15346008D02*
X4655539Y-15336484D01*
X4807920Y-15536484D02*
X4807920Y-15403150D01*
X4807920Y-15422198D02*
X4817444Y-15412674D01*
X4817444Y-15412674D02*
X4836491Y-15403150D01*
X4836491Y-15403150D02*
X4865063Y-15403150D01*
X4865063Y-15403150D02*
X4884110Y-15412674D01*
X4884110Y-15412674D02*
X4893634Y-15431722D01*
X4893634Y-15431722D02*
X4893634Y-15536484D01*
X4893634Y-15431722D02*
X4903158Y-15412674D01*
X4903158Y-15412674D02*
X4922205Y-15403150D01*
X4922205Y-15403150D02*
X4950777Y-15403150D01*
X4950777Y-15403150D02*
X4969825Y-15412674D01*
X4969825Y-15412674D02*
X4979348Y-15431722D01*
X4979348Y-15431722D02*
X4979348Y-15536484D01*
X5074586Y-15536484D02*
X5074586Y-15403150D01*
X5074586Y-15422198D02*
X5084110Y-15412674D01*
X5084110Y-15412674D02*
X5103158Y-15403150D01*
X5103158Y-15403150D02*
X5131729Y-15403150D01*
X5131729Y-15403150D02*
X5150777Y-15412674D01*
X5150777Y-15412674D02*
X5160301Y-15431722D01*
X5160301Y-15431722D02*
X5160301Y-15536484D01*
X5160301Y-15431722D02*
X5169825Y-15412674D01*
X5169825Y-15412674D02*
X5188872Y-15403150D01*
X5188872Y-15403150D02*
X5217444Y-15403150D01*
X5217444Y-15403150D02*
X5236491Y-15412674D01*
X5236491Y-15412674D02*
X5246015Y-15431722D01*
X5246015Y-15431722D02*
X5246015Y-15536484D01*
X5636491Y-15326960D02*
X5465063Y-15584103D01*
X5893634Y-15336484D02*
X5912682Y-15336484D01*
X5912682Y-15336484D02*
X5931729Y-15346008D01*
X5931729Y-15346008D02*
X5941253Y-15355531D01*
X5941253Y-15355531D02*
X5950777Y-15374579D01*
X5950777Y-15374579D02*
X5960301Y-15412674D01*
X5960301Y-15412674D02*
X5960301Y-15460293D01*
X5960301Y-15460293D02*
X5950777Y-15498388D01*
X5950777Y-15498388D02*
X5941253Y-15517436D01*
X5941253Y-15517436D02*
X5931729Y-15526960D01*
X5931729Y-15526960D02*
X5912682Y-15536484D01*
X5912682Y-15536484D02*
X5893634Y-15536484D01*
X5893634Y-15536484D02*
X5874586Y-15526960D01*
X5874586Y-15526960D02*
X5865063Y-15517436D01*
X5865063Y-15517436D02*
X5855539Y-15498388D01*
X5855539Y-15498388D02*
X5846015Y-15460293D01*
X5846015Y-15460293D02*
X5846015Y-15412674D01*
X5846015Y-15412674D02*
X5855539Y-15374579D01*
X5855539Y-15374579D02*
X5865063Y-15355531D01*
X5865063Y-15355531D02*
X5874586Y-15346008D01*
X5874586Y-15346008D02*
X5893634Y-15336484D01*
X6046015Y-15517436D02*
X6055539Y-15526960D01*
X6055539Y-15526960D02*
X6046015Y-15536484D01*
X6046015Y-15536484D02*
X6036491Y-15526960D01*
X6036491Y-15526960D02*
X6046015Y-15517436D01*
X6046015Y-15517436D02*
X6046015Y-15536484D01*
X6246015Y-15536484D02*
X6131729Y-15536484D01*
X6188872Y-15536484D02*
X6188872Y-15336484D01*
X6188872Y-15336484D02*
X6169825Y-15365055D01*
X6169825Y-15365055D02*
X6150777Y-15384103D01*
X6150777Y-15384103D02*
X6131729Y-15393627D01*
X6322206Y-15355531D02*
X6331729Y-15346008D01*
X6331729Y-15346008D02*
X6350777Y-15336484D01*
X6350777Y-15336484D02*
X6398396Y-15336484D01*
X6398396Y-15336484D02*
X6417444Y-15346008D01*
X6417444Y-15346008D02*
X6426967Y-15355531D01*
X6426967Y-15355531D02*
X6436491Y-15374579D01*
X6436491Y-15374579D02*
X6436491Y-15393627D01*
X6436491Y-15393627D02*
X6426967Y-15422198D01*
X6426967Y-15422198D02*
X6312682Y-15536484D01*
X6312682Y-15536484D02*
X6436491Y-15536484D01*
X6607920Y-15336484D02*
X6569825Y-15336484D01*
X6569825Y-15336484D02*
X6550777Y-15346008D01*
X6550777Y-15346008D02*
X6541253Y-15355531D01*
X6541253Y-15355531D02*
X6522206Y-15384103D01*
X6522206Y-15384103D02*
X6512682Y-15422198D01*
X6512682Y-15422198D02*
X6512682Y-15498388D01*
X6512682Y-15498388D02*
X6522206Y-15517436D01*
X6522206Y-15517436D02*
X6531729Y-15526960D01*
X6531729Y-15526960D02*
X6550777Y-15536484D01*
X6550777Y-15536484D02*
X6588872Y-15536484D01*
X6588872Y-15536484D02*
X6607920Y-15526960D01*
X6607920Y-15526960D02*
X6617444Y-15517436D01*
X6617444Y-15517436D02*
X6626967Y-15498388D01*
X6626967Y-15498388D02*
X6626967Y-15450769D01*
X6626967Y-15450769D02*
X6617444Y-15431722D01*
X6617444Y-15431722D02*
X6607920Y-15422198D01*
X6607920Y-15422198D02*
X6588872Y-15412674D01*
X6588872Y-15412674D02*
X6550777Y-15412674D01*
X6550777Y-15412674D02*
X6531729Y-15422198D01*
X6531729Y-15422198D02*
X6522206Y-15431722D01*
X6522206Y-15431722D02*
X6512682Y-15450769D01*
X6750777Y-15336484D02*
X6769825Y-15336484D01*
X6769825Y-15336484D02*
X6788872Y-15346008D01*
X6788872Y-15346008D02*
X6798396Y-15355531D01*
X6798396Y-15355531D02*
X6807920Y-15374579D01*
X6807920Y-15374579D02*
X6817444Y-15412674D01*
X6817444Y-15412674D02*
X6817444Y-15460293D01*
X6817444Y-15460293D02*
X6807920Y-15498388D01*
X6807920Y-15498388D02*
X6798396Y-15517436D01*
X6798396Y-15517436D02*
X6788872Y-15526960D01*
X6788872Y-15526960D02*
X6769825Y-15536484D01*
X6769825Y-15536484D02*
X6750777Y-15536484D01*
X6750777Y-15536484D02*
X6731729Y-15526960D01*
X6731729Y-15526960D02*
X6722206Y-15517436D01*
X6722206Y-15517436D02*
X6712682Y-15498388D01*
X6712682Y-15498388D02*
X6703158Y-15460293D01*
X6703158Y-15460293D02*
X6703158Y-15412674D01*
X6703158Y-15412674D02*
X6712682Y-15374579D01*
X6712682Y-15374579D02*
X6722206Y-15355531D01*
X6722206Y-15355531D02*
X6731729Y-15346008D01*
X6731729Y-15346008D02*
X6750777Y-15336484D01*
X6893634Y-15336484D02*
X6893634Y-15374579D01*
X6969825Y-15336484D02*
X6969825Y-15374579D01*
X7265063Y-15612674D02*
X7255539Y-15603150D01*
X7255539Y-15603150D02*
X7236491Y-15574579D01*
X7236491Y-15574579D02*
X7226968Y-15555531D01*
X7226968Y-15555531D02*
X7217444Y-15526960D01*
X7217444Y-15526960D02*
X7207920Y-15479341D01*
X7207920Y-15479341D02*
X7207920Y-15441246D01*
X7207920Y-15441246D02*
X7217444Y-15393627D01*
X7217444Y-15393627D02*
X7226968Y-15365055D01*
X7226968Y-15365055D02*
X7236491Y-15346008D01*
X7236491Y-15346008D02*
X7255539Y-15317436D01*
X7255539Y-15317436D02*
X7265063Y-15307912D01*
X7426968Y-15403150D02*
X7426968Y-15536484D01*
X7379348Y-15326960D02*
X7331729Y-15469817D01*
X7331729Y-15469817D02*
X7455539Y-15469817D01*
X7684110Y-15536484D02*
X7684110Y-15336484D01*
X7769825Y-15536484D02*
X7769825Y-15431722D01*
X7769825Y-15431722D02*
X7760301Y-15412674D01*
X7760301Y-15412674D02*
X7741253Y-15403150D01*
X7741253Y-15403150D02*
X7712682Y-15403150D01*
X7712682Y-15403150D02*
X7693634Y-15412674D01*
X7693634Y-15412674D02*
X7684110Y-15422198D01*
X7893634Y-15536484D02*
X7874587Y-15526960D01*
X7874587Y-15526960D02*
X7865063Y-15517436D01*
X7865063Y-15517436D02*
X7855539Y-15498388D01*
X7855539Y-15498388D02*
X7855539Y-15441246D01*
X7855539Y-15441246D02*
X7865063Y-15422198D01*
X7865063Y-15422198D02*
X7874587Y-15412674D01*
X7874587Y-15412674D02*
X7893634Y-15403150D01*
X7893634Y-15403150D02*
X7922206Y-15403150D01*
X7922206Y-15403150D02*
X7941253Y-15412674D01*
X7941253Y-15412674D02*
X7950777Y-15422198D01*
X7950777Y-15422198D02*
X7960301Y-15441246D01*
X7960301Y-15441246D02*
X7960301Y-15498388D01*
X7960301Y-15498388D02*
X7950777Y-15517436D01*
X7950777Y-15517436D02*
X7941253Y-15526960D01*
X7941253Y-15526960D02*
X7922206Y-15536484D01*
X7922206Y-15536484D02*
X7893634Y-15536484D01*
X8074587Y-15536484D02*
X8055539Y-15526960D01*
X8055539Y-15526960D02*
X8046015Y-15507912D01*
X8046015Y-15507912D02*
X8046015Y-15336484D01*
X8226968Y-15526960D02*
X8207920Y-15536484D01*
X8207920Y-15536484D02*
X8169825Y-15536484D01*
X8169825Y-15536484D02*
X8150777Y-15526960D01*
X8150777Y-15526960D02*
X8141253Y-15507912D01*
X8141253Y-15507912D02*
X8141253Y-15431722D01*
X8141253Y-15431722D02*
X8150777Y-15412674D01*
X8150777Y-15412674D02*
X8169825Y-15403150D01*
X8169825Y-15403150D02*
X8207920Y-15403150D01*
X8207920Y-15403150D02*
X8226968Y-15412674D01*
X8226968Y-15412674D02*
X8236491Y-15431722D01*
X8236491Y-15431722D02*
X8236491Y-15450769D01*
X8236491Y-15450769D02*
X8141253Y-15469817D01*
X8312682Y-15526960D02*
X8331730Y-15536484D01*
X8331730Y-15536484D02*
X8369825Y-15536484D01*
X8369825Y-15536484D02*
X8388873Y-15526960D01*
X8388873Y-15526960D02*
X8398396Y-15507912D01*
X8398396Y-15507912D02*
X8398396Y-15498388D01*
X8398396Y-15498388D02*
X8388873Y-15479341D01*
X8388873Y-15479341D02*
X8369825Y-15469817D01*
X8369825Y-15469817D02*
X8341253Y-15469817D01*
X8341253Y-15469817D02*
X8322206Y-15460293D01*
X8322206Y-15460293D02*
X8312682Y-15441246D01*
X8312682Y-15441246D02*
X8312682Y-15431722D01*
X8312682Y-15431722D02*
X8322206Y-15412674D01*
X8322206Y-15412674D02*
X8341253Y-15403150D01*
X8341253Y-15403150D02*
X8369825Y-15403150D01*
X8369825Y-15403150D02*
X8388873Y-15412674D01*
X8465063Y-15612674D02*
X8474587Y-15603150D01*
X8474587Y-15603150D02*
X8493634Y-15574579D01*
X8493634Y-15574579D02*
X8503158Y-15555531D01*
X8503158Y-15555531D02*
X8512682Y-15526960D01*
X8512682Y-15526960D02*
X8522206Y-15479341D01*
X8522206Y-15479341D02*
X8522206Y-15441246D01*
X8522206Y-15441246D02*
X8512682Y-15393627D01*
X8512682Y-15393627D02*
X8503158Y-15365055D01*
X8503158Y-15365055D02*
X8493634Y-15346008D01*
X8493634Y-15346008D02*
X8474587Y-15317436D01*
X8474587Y-15317436D02*
X8465063Y-15307912D01*
X8826968Y-15612674D02*
X8817444Y-15603150D01*
X8817444Y-15603150D02*
X8798396Y-15574579D01*
X8798396Y-15574579D02*
X8788873Y-15555531D01*
X8788873Y-15555531D02*
X8779349Y-15526960D01*
X8779349Y-15526960D02*
X8769825Y-15479341D01*
X8769825Y-15479341D02*
X8769825Y-15441246D01*
X8769825Y-15441246D02*
X8779349Y-15393627D01*
X8779349Y-15393627D02*
X8788873Y-15365055D01*
X8788873Y-15365055D02*
X8798396Y-15346008D01*
X8798396Y-15346008D02*
X8817444Y-15317436D01*
X8817444Y-15317436D02*
X8826968Y-15307912D01*
X8903158Y-15403150D02*
X8903158Y-15536484D01*
X8903158Y-15422198D02*
X8912682Y-15412674D01*
X8912682Y-15412674D02*
X8931730Y-15403150D01*
X8931730Y-15403150D02*
X8960301Y-15403150D01*
X8960301Y-15403150D02*
X8979349Y-15412674D01*
X8979349Y-15412674D02*
X8988873Y-15431722D01*
X8988873Y-15431722D02*
X8988873Y-15536484D01*
X9112682Y-15536484D02*
X9093634Y-15526960D01*
X9093634Y-15526960D02*
X9084111Y-15517436D01*
X9084111Y-15517436D02*
X9074587Y-15498388D01*
X9074587Y-15498388D02*
X9074587Y-15441246D01*
X9074587Y-15441246D02*
X9084111Y-15422198D01*
X9084111Y-15422198D02*
X9093634Y-15412674D01*
X9093634Y-15412674D02*
X9112682Y-15403150D01*
X9112682Y-15403150D02*
X9141254Y-15403150D01*
X9141254Y-15403150D02*
X9160301Y-15412674D01*
X9160301Y-15412674D02*
X9169825Y-15422198D01*
X9169825Y-15422198D02*
X9179349Y-15441246D01*
X9179349Y-15441246D02*
X9179349Y-15498388D01*
X9179349Y-15498388D02*
X9169825Y-15517436D01*
X9169825Y-15517436D02*
X9160301Y-15526960D01*
X9160301Y-15526960D02*
X9141254Y-15536484D01*
X9141254Y-15536484D02*
X9112682Y-15536484D01*
X9236492Y-15403150D02*
X9312682Y-15403150D01*
X9265063Y-15336484D02*
X9265063Y-15507912D01*
X9265063Y-15507912D02*
X9274587Y-15526960D01*
X9274587Y-15526960D02*
X9293634Y-15536484D01*
X9293634Y-15536484D02*
X9312682Y-15536484D01*
X9531730Y-15403150D02*
X9531730Y-15603150D01*
X9531730Y-15412674D02*
X9550777Y-15403150D01*
X9550777Y-15403150D02*
X9588873Y-15403150D01*
X9588873Y-15403150D02*
X9607920Y-15412674D01*
X9607920Y-15412674D02*
X9617444Y-15422198D01*
X9617444Y-15422198D02*
X9626968Y-15441246D01*
X9626968Y-15441246D02*
X9626968Y-15498388D01*
X9626968Y-15498388D02*
X9617444Y-15517436D01*
X9617444Y-15517436D02*
X9607920Y-15526960D01*
X9607920Y-15526960D02*
X9588873Y-15536484D01*
X9588873Y-15536484D02*
X9550777Y-15536484D01*
X9550777Y-15536484D02*
X9531730Y-15526960D01*
X9741254Y-15536484D02*
X9722206Y-15526960D01*
X9722206Y-15526960D02*
X9712682Y-15507912D01*
X9712682Y-15507912D02*
X9712682Y-15336484D01*
X9903158Y-15536484D02*
X9903158Y-15431722D01*
X9903158Y-15431722D02*
X9893635Y-15412674D01*
X9893635Y-15412674D02*
X9874587Y-15403150D01*
X9874587Y-15403150D02*
X9836492Y-15403150D01*
X9836492Y-15403150D02*
X9817444Y-15412674D01*
X9903158Y-15526960D02*
X9884111Y-15536484D01*
X9884111Y-15536484D02*
X9836492Y-15536484D01*
X9836492Y-15536484D02*
X9817444Y-15526960D01*
X9817444Y-15526960D02*
X9807920Y-15507912D01*
X9807920Y-15507912D02*
X9807920Y-15488865D01*
X9807920Y-15488865D02*
X9817444Y-15469817D01*
X9817444Y-15469817D02*
X9836492Y-15460293D01*
X9836492Y-15460293D02*
X9884111Y-15460293D01*
X9884111Y-15460293D02*
X9903158Y-15450769D01*
X9969825Y-15403150D02*
X10046015Y-15403150D01*
X9998396Y-15336484D02*
X9998396Y-15507912D01*
X9998396Y-15507912D02*
X10007920Y-15526960D01*
X10007920Y-15526960D02*
X10026968Y-15536484D01*
X10026968Y-15536484D02*
X10046015Y-15536484D01*
X10188873Y-15526960D02*
X10169825Y-15536484D01*
X10169825Y-15536484D02*
X10131730Y-15536484D01*
X10131730Y-15536484D02*
X10112682Y-15526960D01*
X10112682Y-15526960D02*
X10103158Y-15507912D01*
X10103158Y-15507912D02*
X10103158Y-15431722D01*
X10103158Y-15431722D02*
X10112682Y-15412674D01*
X10112682Y-15412674D02*
X10131730Y-15403150D01*
X10131730Y-15403150D02*
X10169825Y-15403150D01*
X10169825Y-15403150D02*
X10188873Y-15412674D01*
X10188873Y-15412674D02*
X10198396Y-15431722D01*
X10198396Y-15431722D02*
X10198396Y-15450769D01*
X10198396Y-15450769D02*
X10103158Y-15469817D01*
X10369825Y-15536484D02*
X10369825Y-15336484D01*
X10369825Y-15526960D02*
X10350777Y-15536484D01*
X10350777Y-15536484D02*
X10312682Y-15536484D01*
X10312682Y-15536484D02*
X10293635Y-15526960D01*
X10293635Y-15526960D02*
X10284111Y-15517436D01*
X10284111Y-15517436D02*
X10274587Y-15498388D01*
X10274587Y-15498388D02*
X10274587Y-15441246D01*
X10274587Y-15441246D02*
X10284111Y-15422198D01*
X10284111Y-15422198D02*
X10293635Y-15412674D01*
X10293635Y-15412674D02*
X10312682Y-15403150D01*
X10312682Y-15403150D02*
X10350777Y-15403150D01*
X10350777Y-15403150D02*
X10369825Y-15412674D01*
X10446016Y-15612674D02*
X10455539Y-15603150D01*
X10455539Y-15603150D02*
X10474587Y-15574579D01*
X10474587Y-15574579D02*
X10484111Y-15555531D01*
X10484111Y-15555531D02*
X10493635Y-15526960D01*
X10493635Y-15526960D02*
X10503158Y-15479341D01*
X10503158Y-15479341D02*
X10503158Y-15441246D01*
X10503158Y-15441246D02*
X10493635Y-15393627D01*
X10493635Y-15393627D02*
X10484111Y-15365055D01*
X10484111Y-15365055D02*
X10474587Y-15346008D01*
X10474587Y-15346008D02*
X10455539Y-15317436D01*
X10455539Y-15317436D02*
X10446016Y-15307912D01*
X3590000Y-15665000D02*
X3590000Y-15865000D01*
X3490000Y-15765000D02*
X3690000Y-15765000D01*
X4036491Y-15656484D02*
X3998396Y-15656484D01*
X3998396Y-15656484D02*
X3979348Y-15666008D01*
X3979348Y-15666008D02*
X3969824Y-15675531D01*
X3969824Y-15675531D02*
X3950777Y-15704103D01*
X3950777Y-15704103D02*
X3941253Y-15742198D01*
X3941253Y-15742198D02*
X3941253Y-15818388D01*
X3941253Y-15818388D02*
X3950777Y-15837436D01*
X3950777Y-15837436D02*
X3960301Y-15846960D01*
X3960301Y-15846960D02*
X3979348Y-15856484D01*
X3979348Y-15856484D02*
X4017443Y-15856484D01*
X4017443Y-15856484D02*
X4036491Y-15846960D01*
X4036491Y-15846960D02*
X4046015Y-15837436D01*
X4046015Y-15837436D02*
X4055539Y-15818388D01*
X4055539Y-15818388D02*
X4055539Y-15770769D01*
X4055539Y-15770769D02*
X4046015Y-15751722D01*
X4046015Y-15751722D02*
X4036491Y-15742198D01*
X4036491Y-15742198D02*
X4017443Y-15732674D01*
X4017443Y-15732674D02*
X3979348Y-15732674D01*
X3979348Y-15732674D02*
X3960301Y-15742198D01*
X3960301Y-15742198D02*
X3950777Y-15751722D01*
X3950777Y-15751722D02*
X3941253Y-15770769D01*
X4141253Y-15837436D02*
X4150777Y-15846960D01*
X4150777Y-15846960D02*
X4141253Y-15856484D01*
X4141253Y-15856484D02*
X4131729Y-15846960D01*
X4131729Y-15846960D02*
X4141253Y-15837436D01*
X4141253Y-15837436D02*
X4141253Y-15856484D01*
X4331729Y-15656484D02*
X4236491Y-15656484D01*
X4236491Y-15656484D02*
X4226967Y-15751722D01*
X4226967Y-15751722D02*
X4236491Y-15742198D01*
X4236491Y-15742198D02*
X4255539Y-15732674D01*
X4255539Y-15732674D02*
X4303158Y-15732674D01*
X4303158Y-15732674D02*
X4322205Y-15742198D01*
X4322205Y-15742198D02*
X4331729Y-15751722D01*
X4331729Y-15751722D02*
X4341253Y-15770769D01*
X4341253Y-15770769D02*
X4341253Y-15818388D01*
X4341253Y-15818388D02*
X4331729Y-15837436D01*
X4331729Y-15837436D02*
X4322205Y-15846960D01*
X4322205Y-15846960D02*
X4303158Y-15856484D01*
X4303158Y-15856484D02*
X4255539Y-15856484D01*
X4255539Y-15856484D02*
X4236491Y-15846960D01*
X4236491Y-15846960D02*
X4226967Y-15837436D01*
X4465063Y-15656484D02*
X4484110Y-15656484D01*
X4484110Y-15656484D02*
X4503158Y-15666008D01*
X4503158Y-15666008D02*
X4512682Y-15675531D01*
X4512682Y-15675531D02*
X4522205Y-15694579D01*
X4522205Y-15694579D02*
X4531729Y-15732674D01*
X4531729Y-15732674D02*
X4531729Y-15780293D01*
X4531729Y-15780293D02*
X4522205Y-15818388D01*
X4522205Y-15818388D02*
X4512682Y-15837436D01*
X4512682Y-15837436D02*
X4503158Y-15846960D01*
X4503158Y-15846960D02*
X4484110Y-15856484D01*
X4484110Y-15856484D02*
X4465063Y-15856484D01*
X4465063Y-15856484D02*
X4446015Y-15846960D01*
X4446015Y-15846960D02*
X4436491Y-15837436D01*
X4436491Y-15837436D02*
X4426967Y-15818388D01*
X4426967Y-15818388D02*
X4417444Y-15780293D01*
X4417444Y-15780293D02*
X4417444Y-15732674D01*
X4417444Y-15732674D02*
X4426967Y-15694579D01*
X4426967Y-15694579D02*
X4436491Y-15675531D01*
X4436491Y-15675531D02*
X4446015Y-15666008D01*
X4446015Y-15666008D02*
X4465063Y-15656484D01*
X4655539Y-15656484D02*
X4674586Y-15656484D01*
X4674586Y-15656484D02*
X4693634Y-15666008D01*
X4693634Y-15666008D02*
X4703158Y-15675531D01*
X4703158Y-15675531D02*
X4712682Y-15694579D01*
X4712682Y-15694579D02*
X4722205Y-15732674D01*
X4722205Y-15732674D02*
X4722205Y-15780293D01*
X4722205Y-15780293D02*
X4712682Y-15818388D01*
X4712682Y-15818388D02*
X4703158Y-15837436D01*
X4703158Y-15837436D02*
X4693634Y-15846960D01*
X4693634Y-15846960D02*
X4674586Y-15856484D01*
X4674586Y-15856484D02*
X4655539Y-15856484D01*
X4655539Y-15856484D02*
X4636491Y-15846960D01*
X4636491Y-15846960D02*
X4626967Y-15837436D01*
X4626967Y-15837436D02*
X4617444Y-15818388D01*
X4617444Y-15818388D02*
X4607920Y-15780293D01*
X4607920Y-15780293D02*
X4607920Y-15732674D01*
X4607920Y-15732674D02*
X4617444Y-15694579D01*
X4617444Y-15694579D02*
X4626967Y-15675531D01*
X4626967Y-15675531D02*
X4636491Y-15666008D01*
X4636491Y-15666008D02*
X4655539Y-15656484D01*
X4807920Y-15856484D02*
X4807920Y-15723150D01*
X4807920Y-15742198D02*
X4817444Y-15732674D01*
X4817444Y-15732674D02*
X4836491Y-15723150D01*
X4836491Y-15723150D02*
X4865063Y-15723150D01*
X4865063Y-15723150D02*
X4884110Y-15732674D01*
X4884110Y-15732674D02*
X4893634Y-15751722D01*
X4893634Y-15751722D02*
X4893634Y-15856484D01*
X4893634Y-15751722D02*
X4903158Y-15732674D01*
X4903158Y-15732674D02*
X4922205Y-15723150D01*
X4922205Y-15723150D02*
X4950777Y-15723150D01*
X4950777Y-15723150D02*
X4969825Y-15732674D01*
X4969825Y-15732674D02*
X4979348Y-15751722D01*
X4979348Y-15751722D02*
X4979348Y-15856484D01*
X5074586Y-15856484D02*
X5074586Y-15723150D01*
X5074586Y-15742198D02*
X5084110Y-15732674D01*
X5084110Y-15732674D02*
X5103158Y-15723150D01*
X5103158Y-15723150D02*
X5131729Y-15723150D01*
X5131729Y-15723150D02*
X5150777Y-15732674D01*
X5150777Y-15732674D02*
X5160301Y-15751722D01*
X5160301Y-15751722D02*
X5160301Y-15856484D01*
X5160301Y-15751722D02*
X5169825Y-15732674D01*
X5169825Y-15732674D02*
X5188872Y-15723150D01*
X5188872Y-15723150D02*
X5217444Y-15723150D01*
X5217444Y-15723150D02*
X5236491Y-15732674D01*
X5236491Y-15732674D02*
X5246015Y-15751722D01*
X5246015Y-15751722D02*
X5246015Y-15856484D01*
X5636491Y-15646960D02*
X5465063Y-15904103D01*
X5893634Y-15656484D02*
X5912682Y-15656484D01*
X5912682Y-15656484D02*
X5931729Y-15666008D01*
X5931729Y-15666008D02*
X5941253Y-15675531D01*
X5941253Y-15675531D02*
X5950777Y-15694579D01*
X5950777Y-15694579D02*
X5960301Y-15732674D01*
X5960301Y-15732674D02*
X5960301Y-15780293D01*
X5960301Y-15780293D02*
X5950777Y-15818388D01*
X5950777Y-15818388D02*
X5941253Y-15837436D01*
X5941253Y-15837436D02*
X5931729Y-15846960D01*
X5931729Y-15846960D02*
X5912682Y-15856484D01*
X5912682Y-15856484D02*
X5893634Y-15856484D01*
X5893634Y-15856484D02*
X5874586Y-15846960D01*
X5874586Y-15846960D02*
X5865063Y-15837436D01*
X5865063Y-15837436D02*
X5855539Y-15818388D01*
X5855539Y-15818388D02*
X5846015Y-15780293D01*
X5846015Y-15780293D02*
X5846015Y-15732674D01*
X5846015Y-15732674D02*
X5855539Y-15694579D01*
X5855539Y-15694579D02*
X5865063Y-15675531D01*
X5865063Y-15675531D02*
X5874586Y-15666008D01*
X5874586Y-15666008D02*
X5893634Y-15656484D01*
X6046015Y-15837436D02*
X6055539Y-15846960D01*
X6055539Y-15846960D02*
X6046015Y-15856484D01*
X6046015Y-15856484D02*
X6036491Y-15846960D01*
X6036491Y-15846960D02*
X6046015Y-15837436D01*
X6046015Y-15837436D02*
X6046015Y-15856484D01*
X6131729Y-15675531D02*
X6141253Y-15666008D01*
X6141253Y-15666008D02*
X6160301Y-15656484D01*
X6160301Y-15656484D02*
X6207920Y-15656484D01*
X6207920Y-15656484D02*
X6226967Y-15666008D01*
X6226967Y-15666008D02*
X6236491Y-15675531D01*
X6236491Y-15675531D02*
X6246015Y-15694579D01*
X6246015Y-15694579D02*
X6246015Y-15713627D01*
X6246015Y-15713627D02*
X6236491Y-15742198D01*
X6236491Y-15742198D02*
X6122206Y-15856484D01*
X6122206Y-15856484D02*
X6246015Y-15856484D01*
X6426967Y-15656484D02*
X6331729Y-15656484D01*
X6331729Y-15656484D02*
X6322206Y-15751722D01*
X6322206Y-15751722D02*
X6331729Y-15742198D01*
X6331729Y-15742198D02*
X6350777Y-15732674D01*
X6350777Y-15732674D02*
X6398396Y-15732674D01*
X6398396Y-15732674D02*
X6417444Y-15742198D01*
X6417444Y-15742198D02*
X6426967Y-15751722D01*
X6426967Y-15751722D02*
X6436491Y-15770769D01*
X6436491Y-15770769D02*
X6436491Y-15818388D01*
X6436491Y-15818388D02*
X6426967Y-15837436D01*
X6426967Y-15837436D02*
X6417444Y-15846960D01*
X6417444Y-15846960D02*
X6398396Y-15856484D01*
X6398396Y-15856484D02*
X6350777Y-15856484D01*
X6350777Y-15856484D02*
X6331729Y-15846960D01*
X6331729Y-15846960D02*
X6322206Y-15837436D01*
X6617444Y-15656484D02*
X6522206Y-15656484D01*
X6522206Y-15656484D02*
X6512682Y-15751722D01*
X6512682Y-15751722D02*
X6522206Y-15742198D01*
X6522206Y-15742198D02*
X6541253Y-15732674D01*
X6541253Y-15732674D02*
X6588872Y-15732674D01*
X6588872Y-15732674D02*
X6607920Y-15742198D01*
X6607920Y-15742198D02*
X6617444Y-15751722D01*
X6617444Y-15751722D02*
X6626967Y-15770769D01*
X6626967Y-15770769D02*
X6626967Y-15818388D01*
X6626967Y-15818388D02*
X6617444Y-15837436D01*
X6617444Y-15837436D02*
X6607920Y-15846960D01*
X6607920Y-15846960D02*
X6588872Y-15856484D01*
X6588872Y-15856484D02*
X6541253Y-15856484D01*
X6541253Y-15856484D02*
X6522206Y-15846960D01*
X6522206Y-15846960D02*
X6512682Y-15837436D01*
X6722206Y-15856484D02*
X6760301Y-15856484D01*
X6760301Y-15856484D02*
X6779348Y-15846960D01*
X6779348Y-15846960D02*
X6788872Y-15837436D01*
X6788872Y-15837436D02*
X6807920Y-15808865D01*
X6807920Y-15808865D02*
X6817444Y-15770769D01*
X6817444Y-15770769D02*
X6817444Y-15694579D01*
X6817444Y-15694579D02*
X6807920Y-15675531D01*
X6807920Y-15675531D02*
X6798396Y-15666008D01*
X6798396Y-15666008D02*
X6779348Y-15656484D01*
X6779348Y-15656484D02*
X6741253Y-15656484D01*
X6741253Y-15656484D02*
X6722206Y-15666008D01*
X6722206Y-15666008D02*
X6712682Y-15675531D01*
X6712682Y-15675531D02*
X6703158Y-15694579D01*
X6703158Y-15694579D02*
X6703158Y-15742198D01*
X6703158Y-15742198D02*
X6712682Y-15761246D01*
X6712682Y-15761246D02*
X6722206Y-15770769D01*
X6722206Y-15770769D02*
X6741253Y-15780293D01*
X6741253Y-15780293D02*
X6779348Y-15780293D01*
X6779348Y-15780293D02*
X6798396Y-15770769D01*
X6798396Y-15770769D02*
X6807920Y-15761246D01*
X6807920Y-15761246D02*
X6817444Y-15742198D01*
X6893634Y-15656484D02*
X6893634Y-15694579D01*
X6969825Y-15656484D02*
X6969825Y-15694579D01*
X7265063Y-15932674D02*
X7255539Y-15923150D01*
X7255539Y-15923150D02*
X7236491Y-15894579D01*
X7236491Y-15894579D02*
X7226968Y-15875531D01*
X7226968Y-15875531D02*
X7217444Y-15846960D01*
X7217444Y-15846960D02*
X7207920Y-15799341D01*
X7207920Y-15799341D02*
X7207920Y-15761246D01*
X7207920Y-15761246D02*
X7217444Y-15713627D01*
X7217444Y-15713627D02*
X7226968Y-15685055D01*
X7226968Y-15685055D02*
X7236491Y-15666008D01*
X7236491Y-15666008D02*
X7255539Y-15637436D01*
X7255539Y-15637436D02*
X7265063Y-15627912D01*
X7426968Y-15723150D02*
X7426968Y-15856484D01*
X7379348Y-15646960D02*
X7331729Y-15789817D01*
X7331729Y-15789817D02*
X7455539Y-15789817D01*
X7684110Y-15856484D02*
X7684110Y-15656484D01*
X7769825Y-15856484D02*
X7769825Y-15751722D01*
X7769825Y-15751722D02*
X7760301Y-15732674D01*
X7760301Y-15732674D02*
X7741253Y-15723150D01*
X7741253Y-15723150D02*
X7712682Y-15723150D01*
X7712682Y-15723150D02*
X7693634Y-15732674D01*
X7693634Y-15732674D02*
X7684110Y-15742198D01*
X7893634Y-15856484D02*
X7874587Y-15846960D01*
X7874587Y-15846960D02*
X7865063Y-15837436D01*
X7865063Y-15837436D02*
X7855539Y-15818388D01*
X7855539Y-15818388D02*
X7855539Y-15761246D01*
X7855539Y-15761246D02*
X7865063Y-15742198D01*
X7865063Y-15742198D02*
X7874587Y-15732674D01*
X7874587Y-15732674D02*
X7893634Y-15723150D01*
X7893634Y-15723150D02*
X7922206Y-15723150D01*
X7922206Y-15723150D02*
X7941253Y-15732674D01*
X7941253Y-15732674D02*
X7950777Y-15742198D01*
X7950777Y-15742198D02*
X7960301Y-15761246D01*
X7960301Y-15761246D02*
X7960301Y-15818388D01*
X7960301Y-15818388D02*
X7950777Y-15837436D01*
X7950777Y-15837436D02*
X7941253Y-15846960D01*
X7941253Y-15846960D02*
X7922206Y-15856484D01*
X7922206Y-15856484D02*
X7893634Y-15856484D01*
X8074587Y-15856484D02*
X8055539Y-15846960D01*
X8055539Y-15846960D02*
X8046015Y-15827912D01*
X8046015Y-15827912D02*
X8046015Y-15656484D01*
X8226968Y-15846960D02*
X8207920Y-15856484D01*
X8207920Y-15856484D02*
X8169825Y-15856484D01*
X8169825Y-15856484D02*
X8150777Y-15846960D01*
X8150777Y-15846960D02*
X8141253Y-15827912D01*
X8141253Y-15827912D02*
X8141253Y-15751722D01*
X8141253Y-15751722D02*
X8150777Y-15732674D01*
X8150777Y-15732674D02*
X8169825Y-15723150D01*
X8169825Y-15723150D02*
X8207920Y-15723150D01*
X8207920Y-15723150D02*
X8226968Y-15732674D01*
X8226968Y-15732674D02*
X8236491Y-15751722D01*
X8236491Y-15751722D02*
X8236491Y-15770769D01*
X8236491Y-15770769D02*
X8141253Y-15789817D01*
X8312682Y-15846960D02*
X8331730Y-15856484D01*
X8331730Y-15856484D02*
X8369825Y-15856484D01*
X8369825Y-15856484D02*
X8388873Y-15846960D01*
X8388873Y-15846960D02*
X8398396Y-15827912D01*
X8398396Y-15827912D02*
X8398396Y-15818388D01*
X8398396Y-15818388D02*
X8388873Y-15799341D01*
X8388873Y-15799341D02*
X8369825Y-15789817D01*
X8369825Y-15789817D02*
X8341253Y-15789817D01*
X8341253Y-15789817D02*
X8322206Y-15780293D01*
X8322206Y-15780293D02*
X8312682Y-15761246D01*
X8312682Y-15761246D02*
X8312682Y-15751722D01*
X8312682Y-15751722D02*
X8322206Y-15732674D01*
X8322206Y-15732674D02*
X8341253Y-15723150D01*
X8341253Y-15723150D02*
X8369825Y-15723150D01*
X8369825Y-15723150D02*
X8388873Y-15732674D01*
X8465063Y-15932674D02*
X8474587Y-15923150D01*
X8474587Y-15923150D02*
X8493634Y-15894579D01*
X8493634Y-15894579D02*
X8503158Y-15875531D01*
X8503158Y-15875531D02*
X8512682Y-15846960D01*
X8512682Y-15846960D02*
X8522206Y-15799341D01*
X8522206Y-15799341D02*
X8522206Y-15761246D01*
X8522206Y-15761246D02*
X8512682Y-15713627D01*
X8512682Y-15713627D02*
X8503158Y-15685055D01*
X8503158Y-15685055D02*
X8493634Y-15666008D01*
X8493634Y-15666008D02*
X8474587Y-15637436D01*
X8474587Y-15637436D02*
X8465063Y-15627912D01*
X8826968Y-15932674D02*
X8817444Y-15923150D01*
X8817444Y-15923150D02*
X8798396Y-15894579D01*
X8798396Y-15894579D02*
X8788873Y-15875531D01*
X8788873Y-15875531D02*
X8779349Y-15846960D01*
X8779349Y-15846960D02*
X8769825Y-15799341D01*
X8769825Y-15799341D02*
X8769825Y-15761246D01*
X8769825Y-15761246D02*
X8779349Y-15713627D01*
X8779349Y-15713627D02*
X8788873Y-15685055D01*
X8788873Y-15685055D02*
X8798396Y-15666008D01*
X8798396Y-15666008D02*
X8817444Y-15637436D01*
X8817444Y-15637436D02*
X8826968Y-15627912D01*
X8903158Y-15723150D02*
X8903158Y-15856484D01*
X8903158Y-15742198D02*
X8912682Y-15732674D01*
X8912682Y-15732674D02*
X8931730Y-15723150D01*
X8931730Y-15723150D02*
X8960301Y-15723150D01*
X8960301Y-15723150D02*
X8979349Y-15732674D01*
X8979349Y-15732674D02*
X8988873Y-15751722D01*
X8988873Y-15751722D02*
X8988873Y-15856484D01*
X9112682Y-15856484D02*
X9093634Y-15846960D01*
X9093634Y-15846960D02*
X9084111Y-15837436D01*
X9084111Y-15837436D02*
X9074587Y-15818388D01*
X9074587Y-15818388D02*
X9074587Y-15761246D01*
X9074587Y-15761246D02*
X9084111Y-15742198D01*
X9084111Y-15742198D02*
X9093634Y-15732674D01*
X9093634Y-15732674D02*
X9112682Y-15723150D01*
X9112682Y-15723150D02*
X9141254Y-15723150D01*
X9141254Y-15723150D02*
X9160301Y-15732674D01*
X9160301Y-15732674D02*
X9169825Y-15742198D01*
X9169825Y-15742198D02*
X9179349Y-15761246D01*
X9179349Y-15761246D02*
X9179349Y-15818388D01*
X9179349Y-15818388D02*
X9169825Y-15837436D01*
X9169825Y-15837436D02*
X9160301Y-15846960D01*
X9160301Y-15846960D02*
X9141254Y-15856484D01*
X9141254Y-15856484D02*
X9112682Y-15856484D01*
X9236492Y-15723150D02*
X9312682Y-15723150D01*
X9265063Y-15656484D02*
X9265063Y-15827912D01*
X9265063Y-15827912D02*
X9274587Y-15846960D01*
X9274587Y-15846960D02*
X9293634Y-15856484D01*
X9293634Y-15856484D02*
X9312682Y-15856484D01*
X9531730Y-15723150D02*
X9531730Y-15923150D01*
X9531730Y-15732674D02*
X9550777Y-15723150D01*
X9550777Y-15723150D02*
X9588873Y-15723150D01*
X9588873Y-15723150D02*
X9607920Y-15732674D01*
X9607920Y-15732674D02*
X9617444Y-15742198D01*
X9617444Y-15742198D02*
X9626968Y-15761246D01*
X9626968Y-15761246D02*
X9626968Y-15818388D01*
X9626968Y-15818388D02*
X9617444Y-15837436D01*
X9617444Y-15837436D02*
X9607920Y-15846960D01*
X9607920Y-15846960D02*
X9588873Y-15856484D01*
X9588873Y-15856484D02*
X9550777Y-15856484D01*
X9550777Y-15856484D02*
X9531730Y-15846960D01*
X9741254Y-15856484D02*
X9722206Y-15846960D01*
X9722206Y-15846960D02*
X9712682Y-15827912D01*
X9712682Y-15827912D02*
X9712682Y-15656484D01*
X9903158Y-15856484D02*
X9903158Y-15751722D01*
X9903158Y-15751722D02*
X9893635Y-15732674D01*
X9893635Y-15732674D02*
X9874587Y-15723150D01*
X9874587Y-15723150D02*
X9836492Y-15723150D01*
X9836492Y-15723150D02*
X9817444Y-15732674D01*
X9903158Y-15846960D02*
X9884111Y-15856484D01*
X9884111Y-15856484D02*
X9836492Y-15856484D01*
X9836492Y-15856484D02*
X9817444Y-15846960D01*
X9817444Y-15846960D02*
X9807920Y-15827912D01*
X9807920Y-15827912D02*
X9807920Y-15808865D01*
X9807920Y-15808865D02*
X9817444Y-15789817D01*
X9817444Y-15789817D02*
X9836492Y-15780293D01*
X9836492Y-15780293D02*
X9884111Y-15780293D01*
X9884111Y-15780293D02*
X9903158Y-15770769D01*
X9969825Y-15723150D02*
X10046015Y-15723150D01*
X9998396Y-15656484D02*
X9998396Y-15827912D01*
X9998396Y-15827912D02*
X10007920Y-15846960D01*
X10007920Y-15846960D02*
X10026968Y-15856484D01*
X10026968Y-15856484D02*
X10046015Y-15856484D01*
X10188873Y-15846960D02*
X10169825Y-15856484D01*
X10169825Y-15856484D02*
X10131730Y-15856484D01*
X10131730Y-15856484D02*
X10112682Y-15846960D01*
X10112682Y-15846960D02*
X10103158Y-15827912D01*
X10103158Y-15827912D02*
X10103158Y-15751722D01*
X10103158Y-15751722D02*
X10112682Y-15732674D01*
X10112682Y-15732674D02*
X10131730Y-15723150D01*
X10131730Y-15723150D02*
X10169825Y-15723150D01*
X10169825Y-15723150D02*
X10188873Y-15732674D01*
X10188873Y-15732674D02*
X10198396Y-15751722D01*
X10198396Y-15751722D02*
X10198396Y-15770769D01*
X10198396Y-15770769D02*
X10103158Y-15789817D01*
X10369825Y-15856484D02*
X10369825Y-15656484D01*
X10369825Y-15846960D02*
X10350777Y-15856484D01*
X10350777Y-15856484D02*
X10312682Y-15856484D01*
X10312682Y-15856484D02*
X10293635Y-15846960D01*
X10293635Y-15846960D02*
X10284111Y-15837436D01*
X10284111Y-15837436D02*
X10274587Y-15818388D01*
X10274587Y-15818388D02*
X10274587Y-15761246D01*
X10274587Y-15761246D02*
X10284111Y-15742198D01*
X10284111Y-15742198D02*
X10293635Y-15732674D01*
X10293635Y-15732674D02*
X10312682Y-15723150D01*
X10312682Y-15723150D02*
X10350777Y-15723150D01*
X10350777Y-15723150D02*
X10369825Y-15732674D01*
X10446016Y-15932674D02*
X10455539Y-15923150D01*
X10455539Y-15923150D02*
X10474587Y-15894579D01*
X10474587Y-15894579D02*
X10484111Y-15875531D01*
X10484111Y-15875531D02*
X10493635Y-15846960D01*
X10493635Y-15846960D02*
X10503158Y-15799341D01*
X10503158Y-15799341D02*
X10503158Y-15761246D01*
X10503158Y-15761246D02*
X10493635Y-15713627D01*
X10493635Y-15713627D02*
X10484111Y-15685055D01*
X10484111Y-15685055D02*
X10474587Y-15666008D01*
X10474587Y-15666008D02*
X10455539Y-15637436D01*
X10455539Y-15637436D02*
X10446016Y-15627912D01*
M02*
