M48
; DRILL file {KiCad 8.0.8} date 2025-02-25T18:25:48+0100
; FORMAT={-:-/ absolute / metric / decimal}
; #@! TF.CreationDate,2025-02-25T18:25:48+01:00
; #@! TF.GenerationSoftware,Kicad,Pcbnew,8.0.8
; #@! TF.FileFunction,Plated,1,4,PTH
FMAT,2
METRIC
; #@! TA.AperFunction,Plated,PTH,ViaDrill
T1C0.300
; #@! TA.AperFunction,Plated,PTH,ViaDrill
T2C0.400
; #@! TA.AperFunction,Plated,PTH,ViaDrill
T3C0.500
; #@! TA.AperFunction,Plated,PTH,ComponentDrill
T4C0.650
; #@! TA.AperFunction,Plated,PTH,ComponentDrill
T5C0.800
; #@! TA.AperFunction,Plated,PTH,ComponentDrill
T6C0.900
; #@! TA.AperFunction,Plated,PTH,ComponentDrill
T7C0.950
; #@! TA.AperFunction,Plated,PTH,ComponentDrill
T8C1.000
; #@! TA.AperFunction,Plated,PTH,ComponentDrill
T9C1.090
; #@! TA.AperFunction,Plated,PTH,ComponentDrill
T10C1.100
; #@! TA.AperFunction,Plated,PTH,ComponentDrill
T11C1.200
; #@! TA.AperFunction,Plated,PTH,ComponentDrill
T12C1.300
; #@! TA.AperFunction,Plated,PTH,ComponentDrill
T13C1.600
; #@! TA.AperFunction,Plated,PTH,ComponentDrill
T14C3.800
%
G90
G05
T1
X42.25Y-61.75
X46.25Y-59.5
X46.5Y-57.75
X55.25Y-61.75
X58.0Y-60.75
X63.25Y-127.0
X68.45Y-84.25
X71.5Y-98.25
X73.191Y-83.525
X73.25Y-95.25
X76.75Y-112.75
X78.0Y-99.975
X78.0Y-101.125
X78.0Y-102.275
X78.0Y-107.225
X78.0Y-108.375
X78.0Y-109.525
X79.0Y-100.525
X79.0Y-101.725
X79.0Y-107.775
X79.0Y-108.975
X84.75Y-100.425
X84.75Y-101.625
X84.75Y-107.775
X84.75Y-108.975
X85.75Y-99.875
X85.75Y-101.025
X85.75Y-102.175
X85.75Y-107.225
X85.75Y-108.375
X85.75Y-109.525
X89.175Y-94.2
X89.275Y-97.75
X91.0Y-86.75
X91.8Y-92.45
X95.75Y-101.5
X97.25Y-104.25
X100.25Y-102.75
X105.775Y-79.125
X106.675Y-80.525
X107.5Y-103.75
X107.525Y-90.85
X108.325Y-48.625
X109.2Y-85.225
X109.3Y-106.275
X112.275Y-50.4
X119.1Y-103.525
X120.075Y-96.375
X126.85Y-105.05
X130.361Y-98.646
X130.63Y-92.62
X130.89Y-94.48
X133.05Y-94.75
X134.15Y-99.85
X134.175Y-97.95
X134.175Y-98.85
X135.15Y-98.85
X135.15Y-99.875
X135.175Y-97.925
X135.85Y-51.25
X136.075Y-97.925
X136.1Y-98.85
X136.1Y-99.9
X137.0Y-86.3
X137.05Y-81.8
X142.112Y-50.112
X150.5Y-66.5
X152.975Y-103.525
X158.25Y-69.0
X160.9Y-116.8
X162.75Y-68.0
X166.75Y-87.5
X167.75Y-65.0
X168.93Y-115.23
X171.94Y-123.6
X173.11Y-116.575
X176.653Y-121.072
X179.0Y-70.75
X182.525Y-104.125
X182.73Y-125.37
X185.23Y-108.48
X185.39Y-131.43
X185.54Y-116.71
X187.64Y-115.79
X187.75Y-83.37
X187.76Y-112.38
X187.77Y-84.98
X188.775Y-51.85
X189.27Y-54.38
X190.02Y-93.38
X196.36Y-105.64
X196.845Y-112.41
X197.66Y-111.15
X199.74Y-78.72
X200.898Y-63.102
X202.0Y-61.0
X202.66Y-109.05
X203.22Y-110.75
X204.775Y-115.74
X205.29Y-66.46
X205.75Y-62.96
X206.19Y-66.46
X206.5Y-62.285
X206.52Y-74.47
X206.952Y-65.982
X207.0Y-113.0
X207.425Y-104.6
X207.5Y-106.0
X207.715Y-66.46
X207.75Y-58.5
X208.25Y-111.75
X208.475Y-103.725
X208.5Y-74.5
X208.79Y-66.46
X208.9Y-112.825
X209.226Y-64.66
X209.475Y-99.6
X209.88Y-112.825
X210.0Y-74.5
X210.215Y-67.135
X210.438Y-58.587
X211.75Y-106.75
X211.75Y-107.75
X211.75Y-108.75
X212.475Y-58.85
X212.75Y-106.75
X212.75Y-108.75
X212.79Y-107.75
X212.95Y-56.375
X213.5Y-68.0
X213.75Y-106.75
X213.75Y-107.75
X213.837Y-97.337
X214.1Y-53.5
X214.862Y-55.487
X214.865Y-103.275
X215.222Y-112.232
X215.75Y-60.5
X216.25Y-93.25
X216.75Y-102.75
X216.825Y-111.875
X217.25Y-52.0
X217.75Y-61.25
X217.825Y-102.25
X218.04Y-106.325
X218.5Y-49.0
X218.825Y-57.8
X219.1Y-105.35
X221.92Y-70.35
X222.5Y-92.75
X222.75Y-103.375
X222.95Y-106.425
X224.5Y-60.25
X224.54Y-71.21
X225.0Y-126.75
X225.05Y-53.91
X226.37Y-53.3
X228.25Y-90.25
T2
X39.325Y-78.7
X39.775Y-79.925
X40.13Y-124.32
X40.13Y-131.11
X40.15Y-127.71
X40.875Y-80.275
X41.9Y-76.725
X41.925Y-75.675
X42.0Y-79.9
X42.39Y-131.13
X42.4Y-115.775
X42.425Y-113.2
X42.45Y-92.675
X42.45Y-95.3
X42.45Y-127.69
X42.49Y-124.36
X42.525Y-78.775
X42.675Y-74.8
X43.725Y-74.625
X44.7Y-75.175
X44.825Y-77.075
X45.025Y-92.7
X45.05Y-95.25
X45.05Y-113.225
X45.05Y-115.75
X45.075Y-76.1
X45.925Y-71.6
X46.75Y-72.475
X46.9Y-70.75
X47.675Y-71.5
X47.725Y-73.175
X48.45Y-72.225
X48.55Y-73.95
X49.325Y-73.025
X49.525Y-74.7
X50.225Y-73.775
X50.575Y-116.325
X50.625Y-112.675
X50.675Y-95.825
X50.7Y-92.175
X51.725Y-112.675
X51.725Y-116.325
X51.75Y-92.175
X51.75Y-95.825
X52.51Y-137.92
X52.52Y-135.06
X53.59Y-124.36
X53.61Y-131.09
X53.62Y-127.71
X54.94Y-135.06
X54.95Y-137.95
X55.89Y-127.73
X55.9Y-131.11
X55.93Y-124.35
X57.65Y-69.925
X57.825Y-70.825
X58.25Y-49.5
X58.6Y-71.5
X59.7Y-71.575
X59.875Y-103.05
X59.9Y-104.075
X60.2Y-117.825
X60.25Y-67.125
X60.275Y-115.175
X60.675Y-70.95
X60.675Y-103.5
X60.875Y-102.525
X60.95Y-70.05
X61.0Y-58.5
X61.275Y-106.825
X61.4Y-65.9
X61.75Y-103.475
X61.875Y-117.8
X61.9Y-115.225
X61.975Y-135.1
X61.975Y-137.925
X62.1Y-102.65
X62.25Y-69.075
X62.525Y-104.125
X62.575Y-66.05
X62.725Y-108.825
X63.025Y-103.275
X63.225Y-68.375
X63.725Y-105.925
X63.95Y-66.05
X64.075Y-67.65
X64.4Y-135.05
X64.5Y-49.25
X64.5Y-64.425
X64.5Y-137.9
X64.775Y-108.825
X64.9Y-69.175
X65.675Y-63.125
X66.175Y-70.125
X67.5Y-119.6
X67.525Y-62.5
X67.55Y-117.25
X67.875Y-70.55
X69.5Y-70.2
X69.5Y-117.25
X69.525Y-62.725
X69.55Y-119.55
X70.95Y-69.225
X71.15Y-64.0
X71.375Y-135.175
X71.525Y-137.975
X71.85Y-67.725
X71.95Y-65.7
X73.975Y-137.9
X74.025Y-135.15
X75.35Y-98.1
X75.45Y-104.15
X75.475Y-105.35
X75.475Y-111.35
X76.3Y-98.1
X76.425Y-104.15
X76.425Y-105.35
X76.425Y-111.35
X77.025Y-67.2
X77.15Y-65.3
X77.25Y-98.1
X77.325Y-104.15
X77.35Y-105.35
X77.4Y-111.35
X77.6Y-68.675
X78.05Y-63.725
X78.2Y-98.1
X78.275Y-104.125
X78.275Y-105.35
X78.325Y-111.35
X78.675Y-69.8
X79.15Y-98.1
X79.225Y-104.075
X79.225Y-105.35
X79.25Y-111.35
X79.425Y-62.825
X80.375Y-70.525
X81.0Y-62.45
X81.025Y-135.025
X81.025Y-137.95
X82.175Y-70.4
X82.65Y-62.75
X83.475Y-135.05
X83.55Y-137.85
X83.6Y-69.575
X83.925Y-63.625
X84.25Y-104.05
X84.275Y-105.35
X84.325Y-111.35
X84.35Y-98.0
X84.625Y-68.3
X84.8Y-65.15
X85.0Y-66.85
X85.225Y-104.05
X85.225Y-105.35
X85.275Y-111.35
X85.3Y-98.025
X86.2Y-104.025
X86.2Y-105.35
X86.225Y-111.35
X86.275Y-98.025
X87.125Y-105.375
X87.15Y-104.05
X87.175Y-111.35
X87.25Y-98.025
X88.075Y-105.35
X88.125Y-104.05
X88.15Y-111.35
X90.45Y-137.9
X90.5Y-135.1
X90.875Y-111.875
X91.1Y-104.725
X92.0Y-127.5
X92.125Y-104.7
X92.125Y-111.85
X92.675Y-106.125
X92.675Y-107.075
X92.675Y-108.0
X93.05Y-137.825
X93.075Y-135.15
X93.125Y-104.725
X93.125Y-110.525
X93.225Y-99.1
X93.9Y-90.55
X94.35Y-99.075
X94.825Y-90.525
X95.525Y-99.1
X95.7Y-59.8
X95.8Y-94.875
X95.825Y-90.55
X96.0Y-60.9
X96.3Y-62.0
X96.625Y-63.125
X96.825Y-93.675
X96.85Y-92.675
X97.0Y-59.45
X97.0Y-64.3
X97.0Y-106.0
X97.3Y-60.6
X97.3Y-65.5
X97.5Y-129.25
X97.6Y-61.7
X97.6Y-66.7
X97.875Y-109.875
X97.925Y-62.825
X98.15Y-119.575
X98.25Y-64.025
X98.49Y-102.84
X98.525Y-118.475
X98.6Y-65.15
X98.625Y-120.675
X98.9Y-66.375
X99.1Y-84.575
X99.125Y-85.775
X99.125Y-87.1
X99.75Y-121.125
X99.775Y-135.275
X99.825Y-137.8
X100.725Y-116.725
X100.9Y-120.675
X101.05Y-110.675
X101.425Y-119.675
X101.7Y-115.55
X102.2Y-81.725
X102.225Y-88.25
X102.275Y-84.95
X102.35Y-110.65
X102.6Y-137.8
X102.675Y-118.55
X102.675Y-135.275
X103.0Y-115.55
X103.7Y-117.85
X103.75Y-52.25
X103.75Y-110.65
X103.875Y-116.525
X104.075Y-100.2
X104.075Y-101.5
X104.125Y-102.875
X104.725Y-84.975
X104.75Y-81.65
X104.8Y-88.25
X105.0Y-110.6
X105.975Y-54.1
X106.975Y-97.25
X107.85Y-96.4
X108.175Y-66.125
X108.2Y-62.575
X108.225Y-63.8
X108.225Y-64.875
X108.25Y-107.275
X108.25Y-110.775
X108.575Y-91.85
X108.575Y-92.9
X108.575Y-93.925
X109.25Y-99.75
X109.275Y-64.9
X109.275Y-66.125
X109.3Y-63.8
X109.325Y-62.55
X109.675Y-59.425
X110.05Y-70.15
X110.075Y-58.45
X110.075Y-60.425
X110.075Y-68.275
X111.1Y-60.9
X111.15Y-57.975
X112.15Y-58.45
X112.15Y-60.425
X112.275Y-68.3
X112.6Y-59.425
X115.1Y-70.225
X115.175Y-60.55
X115.2Y-58.35
X115.775Y-88.35
X115.825Y-81.6
X115.825Y-85.0
X116.3Y-95.25
X116.8Y-67.975
X117.025Y-58.325
X117.025Y-60.575
X117.25Y-93.125
X117.25Y-94.2
X117.65Y-55.65
X117.725Y-78.375
X118.1Y-81.575
X118.15Y-85.0
X118.2Y-88.35
X118.275Y-110.55
X118.625Y-54.525
X118.975Y-78.375
X119.375Y-72.175
X119.45Y-69.275
X119.5Y-57.825
X119.55Y-60.7
X119.85Y-53.625
X120.175Y-78.375
X121.425Y-78.325
X121.65Y-102.675
X122.275Y-69.225
X122.325Y-72.2
X122.4Y-57.775
X122.475Y-60.675
X124.0Y-110.65
X124.675Y-71.85
X124.7Y-69.625
X124.8Y-58.175
X124.85Y-87.35
X124.875Y-60.4
X125.475Y-102.1
X125.875Y-94.875
X127.025Y-69.6
X127.025Y-71.9
X127.125Y-58.1
X127.125Y-60.4
X128.0Y-51.75
X129.65Y-110.575
X130.975Y-102.4
X132.925Y-90.9
X135.475Y-110.6
X136.025Y-91.25
X141.225Y-110.675
X141.5Y-75.25
X142.15Y-92.625
X142.725Y-99.35
X143.575Y-83.15
X146.95Y-110.5
X150.5Y-81.25
X152.8Y-110.575
X157.76Y-111.09
X159.92Y-113.82
X164.0Y-75.5
X175.0Y-117.425
X175.1Y-119.7
X175.7Y-104.45
X181.2Y-122.4
X186.6Y-90.13
X199.775Y-69.23
X201.175Y-70.73
X202.3Y-55.3
X204.425Y-55.25
X207.55Y-50.175
X209.175Y-53.975
X209.175Y-55.625
X213.039Y-113.669
X213.781Y-114.411
X214.59Y-70.34
X216.78Y-70.95
X221.5Y-125.79
X221.531Y-124.689
X221.98Y-131.26
T3
X48.777Y-63.075
X67.925Y-80.225
X69.5Y-94.25
X75.25Y-126.25
X75.25Y-129.25
X76.25Y-127.75
X77.25Y-126.25
X77.25Y-129.25
X100.75Y-91.25
X100.75Y-94.25
X101.75Y-92.75
X102.75Y-91.25
X102.75Y-94.25
X112.425Y-88.5
X125.65Y-82.475
X137.41Y-73.84
X148.0Y-83.0
X151.3Y-105.25
X155.5Y-72.25
X155.5Y-73.5
X155.5Y-74.75
X155.5Y-76.0
X155.5Y-77.25
X157.5Y-73.5
X157.5Y-74.75
X157.5Y-76.0
X161.2Y-77.275
X165.0Y-97.575
X165.08Y-95.08
X169.5Y-70.25
X170.5Y-69.25
X171.5Y-68.25
X171.68Y-128.52
X178.75Y-97.575
X180.02Y-88.08
X202.0Y-95.07
T4
X225.555Y-137.8
X230.395Y-137.8
T5
X61.015Y-116.51
X68.515Y-118.41
X111.133Y-59.45
X111.168Y-69.25
X112.3Y-98.65
X114.8Y-98.65
X116.133Y-59.45
X116.168Y-69.25
T6
X150.24Y-87.475
X152.78Y-87.475
X177.9Y-83.3
X180.44Y-83.3
X224.29Y-95.0
X226.83Y-95.0
X229.75Y-95.0
X232.29Y-95.0
T7
X124.63Y-135.16
X127.13Y-135.16
X129.63Y-135.16
X132.13Y-135.16
X134.63Y-135.16
X137.13Y-135.16
X139.63Y-135.16
X142.13Y-135.16
T8
X120.868Y-70.75
X121.0Y-59.25
X125.868Y-70.75
X126.0Y-59.25
X167.85Y-110.58
X170.39Y-110.58
X172.93Y-110.58
X175.47Y-110.58
X187.375Y-121.14
X189.915Y-121.14
X195.025Y-63.935
X195.025Y-66.475
X197.605Y-90.49
X200.145Y-90.49
X203.21Y-81.21
X205.205Y-119.5
X205.75Y-81.21
X207.745Y-119.5
X208.29Y-81.21
X209.75Y-115.765
X210.285Y-119.5
X210.83Y-81.21
X212.29Y-115.765
X212.825Y-119.5
X213.37Y-81.21
X215.365Y-119.5
X226.75Y-63.09
X226.75Y-65.63
X226.75Y-68.17
X226.75Y-70.71
X226.75Y-73.25
X227.29Y-105.88
X227.29Y-108.42
X227.29Y-110.96
X227.29Y-113.5
X227.29Y-116.04
X229.29Y-63.09
X229.29Y-65.63
X229.29Y-68.17
X229.29Y-70.71
X229.29Y-73.25
X229.83Y-105.88
X229.83Y-108.42
X229.83Y-110.96
X229.83Y-113.5
X229.83Y-116.04
T9
X163.91Y-133.12
X165.295Y-135.96
X166.68Y-133.12
X168.065Y-135.96
X169.45Y-133.12
X170.835Y-135.96
X172.22Y-133.12
X173.605Y-135.96
X174.99Y-133.12
T10
X40.922Y-78.75
X43.462Y-76.21
X43.462Y-81.29
X59.287Y-64.96
X59.287Y-70.04
X61.21Y-105.037
X61.828Y-67.5
X63.75Y-107.578
X66.29Y-105.037
X99.787Y-114.46
X99.787Y-119.54
X102.328Y-117.0
T11
X43.728Y-94.0
X43.728Y-114.5
X51.228Y-94.0
X51.228Y-114.5
X225.245Y-140.88
X230.705Y-140.88
T12
X53.73Y-136.5
X63.23Y-136.5
X72.725Y-136.5
X82.225Y-136.5
X91.725Y-136.5
X101.225Y-136.5
T13
X41.28Y-126.02
X41.28Y-129.42
X54.75Y-126.02
X54.75Y-129.42
X103.515Y-83.3
X103.515Y-86.7
X116.985Y-83.3
X116.985Y-86.7
T14
X68.0Y-66.5
X81.0Y-66.5
M30
